<?xml version="1.0" encoding="UTF-8" standalone="no"?>
<!-- Created with Inkscape (http://www.inkscape.org/) -->

<svg
   width="50mm"
   height="50mm"
   viewBox="0 0 50 50"
   version="1.1"
   id="svg5"
   xmlns="http://www.w3.org/2000/svg"
   xmlns:svg="http://www.w3.org/2000/svg">
  <defs
     id="defs2" />
  <rect
     style="fill:#000000;fill-opacity:1;stroke:#ffffff;stroke-width:1.1;stroke-miterlimit:4;stroke-dasharray:none;stroke-opacity:1"
     id="rect4736"
     width="53.91647"
     height="53.352474"
     x="-1.3800532"
     y="-2.3023417" />
  <circle
     style="fill:#000000;fill-opacity:1;stroke:#000000;stroke-width:0.1028;stroke-miterlimit:4;stroke-dasharray:none;stroke-opacity:1"
     id="path4110"
     cx="75.712318"
     cy="24.016752"
     r="20.964146" />
  <rect
     style="fill:#00ffff;stroke-width:0.264583"
     id="rect3788"
     width="47.075718"
     height="31.425882"
     x="-168.08569"
     y="60.30941" />
  <path
     style="fill:#ffffff;stroke:#ffffff;stroke-width:0.220423;stroke-miterlimit:4;stroke-dasharray:none;stroke-opacity:1"
     d="m 18.143782,33.671114 c -0.274962,-0.07624 -0.432649,-0.147773 -0.593513,-0.269217 -0.260717,-0.196829 -0.583278,-0.5386 -0.698662,-0.74027 -0.235295,-0.411255 -0.426837,-1.169075 -0.426629,-1.687918 1.47e-4,-0.47961 0.161447,-1.255566 0.330653,-1.591112 0.0269,-0.05336 0.08072,-0.175604 0.119585,-0.271654 0.08833,-0.218303 0.215566,-0.419887 0.451909,-0.715968 0.101385,-0.127012 0.184562,-0.249269 0.184838,-0.271683 9.98e-4,-0.07761 0.797652,-0.8061 1.110249,-1.015198 0.08277,-0.05537 0.194157,-0.140162 0.247517,-0.188429 0.143126,-0.129469 0.605029,-0.332993 0.811127,-0.357402 0.169197,-0.02004 0.188893,-0.01225 0.339992,0.134383 0.111597,0.108301 0.171868,0.207015 0.198116,0.324487 0.02075,0.09286 0.04207,0.186295 0.04738,0.20764 0.0054,0.02134 0.0076,0.07058 0.0051,0.10942 -0.0064,0.09961 -0.174518,0.07152 -0.190264,-0.0318 -0.02518,-0.165232 -0.13465,-0.410025 -0.198685,-0.444294 -0.04955,-0.02652 -0.146073,0.0042 -0.368555,0.117356 -0.165782,0.08431 -0.327396,0.17926 -0.359142,0.211006 -0.03175,0.03175 -0.07551,0.05772 -0.09725,0.05772 -0.09383,0 -1.040683,1.046506 -1.041918,1.15158 -1.46e-4,0.01763 -0.06257,0.110301 -0.138587,0.205935 -0.07601,0.09564 -0.147883,0.222245 -0.159705,0.281356 -0.01182,0.05911 -0.03559,0.107473 -0.05284,0.107473 -0.01723,0 -0.04353,0.03929 -0.05843,0.08732 -0.01489,0.04802 -0.05727,0.157171 -0.09418,0.242547 -0.07259,0.167959 -0.212629,0.681106 -0.254162,0.931383 -0.111213,0.670189 -0.06259,1.571306 0.110986,2.056806 0.154379,0.431815 0.529872,0.885241 0.944216,1.140188 0.177367,0.109136 0.227418,0.121061 0.508125,0.121061 0.287241,0 0.33654,-0.0125 0.636033,-0.16124 0.378705,-0.188082 0.732104,-0.528575 1.242402,-1.197028 0.504436,-0.660775 1.081672,-1.214578 1.612913,-1.547436 0.08088,-0.05068 0.303575,-0.151937 0.494861,-0.225012 0.297945,-0.113821 0.384229,-0.130685 0.602018,-0.117667 0.265606,0.01587 0.384261,0.06505 0.463611,0.192104 0.06878,0.110121 0.02104,0.129853 -0.134573,0.05564 -0.290007,-0.138295 -0.436026,-0.05128 -0.759209,0.452423 -0.300432,0.468243 -0.445228,0.869123 -0.409109,1.132644 0.03653,0.266519 0.179453,0.532169 0.325594,0.605176 0.06911,0.03452 0.151838,0.08451 0.183832,0.111054 0.139716,0.115955 0.344934,-0.03292 0.587342,-0.426081 0.281811,-0.457072 0.336377,-0.692878 0.346365,-1.496804 0.01037,-0.835074 0.01,-0.833995 0.334336,-0.89139 0.133846,-0.02368 0.143083,-0.01857 0.167522,0.09269 0.01422,0.06477 0.0048,0.364809 -0.02094,0.66676 -0.05238,0.614415 -0.02682,0.824046 0.146524,1.201855 0.112669,0.24556 0.230451,0.388078 0.320728,0.388078 0.09132,0 0.460176,-0.326576 0.723219,-0.640327 0.286801,-0.34209 0.251331,-0.294859 0.49545,-0.659729 0.37946,-0.567158 0.597082,-1.097054 0.555346,-1.352229 -0.01101,-0.06735 -0.05502,-0.349487 -0.09779,-0.626961 -0.04277,-0.277476 -0.104598,-0.65294 -0.137396,-0.834366 -0.231513,-1.280669 -0.319634,-2.439981 -0.21262,-2.797165 0.02436,-0.08132 0.09549,-0.209952 0.158055,-0.285859 0.09586,-0.116289 0.138254,-0.138009 0.2694,-0.138009 0.126729,0 0.180021,0.02511 0.286883,0.135141 0.07218,0.07433 0.158983,0.188791 0.192891,0.254363 0.07921,0.153164 0.172166,0.97985 0.17314,1.539692 7.33e-4,0.439563 -0.107693,1.425505 -0.213434,1.94023 -0.06701,0.326187 -0.07585,0.956001 -0.01585,1.12815 0.02289,0.06566 0.05472,0.203615 0.07073,0.30655 l 0.02911,0.187155 0.06031,-0.194038 c 0.148038,-0.476278 0.237593,-0.610751 0.533461,-0.801026 0.137845,-0.08865 0.216651,-0.110955 0.391988,-0.110955 0.538522,0 0.859354,0.294678 0.864048,0.793608 0.0033,0.346512 -0.161488,0.585022 -0.576886,0.835183 -0.08423,0.05072 -0.157996,0.0955 -0.16393,0.09951 -0.06849,0.04624 0.42992,0.710338 0.671301,0.894448 0.164947,0.125812 0.257533,0.109817 0.703476,-0.121527 0.361865,-0.187727 0.409106,-0.218298 0.607344,-0.393026 l 0.139831,-0.123247 -0.0767,-0.21825 c -0.101327,-0.288293 -0.144543,-0.992141 -0.07406,-1.206145 0.06442,-0.195578 0.252333,-0.426603 0.426272,-0.524064 0.07471,-0.04186 0.162021,-0.09256 0.194039,-0.112664 0.136461,-0.0857 0.355742,-0.16478 0.471997,-0.170217 0.09749,-0.0045 0.136224,0.01558 0.175271,0.09117 0.06772,0.131079 0.06408,0.438989 -0.0084,0.71756 -0.05792,0.222349 -0.337412,0.754089 -0.539622,1.026622 -0.05454,0.07351 -0.09917,0.165949 -0.09917,0.205408 0,0.08181 0.236031,0.458485 0.415057,0.662385 0.06615,0.07534 0.190982,0.183782 0.277396,0.240966 0.132511,0.08769 0.183266,0.100063 0.324145,0.079 0.534673,-0.07992 0.816957,-0.194389 1.255693,-0.509167 0.284587,-0.204181 0.366628,-0.244417 0.366628,-0.179808 0,0.05677 -0.288251,0.308911 -0.52972,0.463352 -0.266522,0.170465 -0.808012,0.339125 -1.221883,0.380585 -0.479532,0.04804 -0.90145,-0.159821 -1.140047,-0.561644 -0.06377,-0.107394 -0.13974,-0.195609 -0.168828,-0.196032 -0.02909,-4.4e-4 -0.158733,0.0788 -0.288103,0.176046 -0.341558,0.256753 -0.840469,0.492324 -1.044786,0.493315 -0.22951,0.0012 -0.496836,-0.03363 -0.612819,-0.07965 -0.112555,-0.04467 -0.336645,-0.27923 -0.571403,-0.598127 -0.09061,-0.123088 -0.199944,-0.245775 -0.24296,-0.272638 -0.121032,-0.07559 -0.09434,-0.163983 0.06715,-0.22238 0.189967,-0.06869 0.444663,-0.261067 0.552592,-0.417379 0.06495,-0.09407 0.08596,-0.180425 0.08596,-0.353393 0,-0.398691 -0.164413,-0.589329 -0.508253,-0.589329 -0.166951,0 -0.20315,0.01459 -0.270347,0.108959 -0.103642,0.14555 -0.179416,0.347888 -0.278926,0.744809 -0.0705,0.281206 -0.07933,0.398559 -0.05991,0.795556 0.01253,0.25613 0.03326,0.567239 0.04606,0.691353 0.01886,0.182835 0.01039,0.239912 -0.04468,0.300759 -0.07653,0.08457 -0.24262,0.100605 -0.271176,0.02619 -0.01032,-0.0269 -0.03441,-0.267022 -0.05353,-0.533605 -0.0359,-0.500671 -0.140062,-1.328029 -0.192928,-1.532503 -0.02924,-0.113064 -0.03489,-0.106908 -0.196097,0.213442 -0.0913,0.181427 -0.221951,0.408451 -0.290339,0.504499 -0.06839,0.09605 -0.189748,0.267703 -0.269683,0.381454 -0.264367,0.3762 -0.580127,0.722117 -0.823112,0.901721 -0.498731,0.368645 -0.986809,0.31175 -1.10497,-0.128805 -0.0243,-0.09063 -0.05273,-0.178755 -0.06317,-0.195843 -0.01043,-0.01709 -0.106457,0.12262 -0.213379,0.31046 -0.324858,0.570711 -0.514192,0.722394 -0.904607,0.724724 -0.188607,0.0012 -0.277083,-0.02205 -0.465692,-0.121998 -0.438224,-0.232221 -0.510753,-0.345699 -0.520986,-0.815128 -0.0077,-0.353986 0.05998,-0.60897 0.28433,-1.070966 0.06871,-0.1415 0.117269,-0.257272 0.107903,-0.257272 -0.0094,0 -0.110559,0.05351 -0.224871,0.118917 -0.312049,0.178535 -0.837999,0.69937 -1.21234,1.200542 -0.473625,0.634103 -1.113345,1.262901 -1.461032,1.436089 -0.255187,0.127114 -0.297528,0.135855 -0.698538,0.144214 -0.278821,0.0058 -0.496961,-0.01053 -0.628927,-0.04712 z m 13.081582,-3.198888 c 0.246731,-0.470669 0.331082,-1.02 0.159828,-1.040881 -0.112172,-0.01369 -0.300816,0.177114 -0.394915,0.399418 -0.09203,0.217406 -0.190353,0.933119 -0.146972,1.069804 0.02836,0.08935 0.02943,0.08903 0.138411,-0.04152 0.06041,-0.07236 0.17005,-0.246431 0.243648,-0.386824 z m -4.096032,-2.244157 c 0.124063,-0.814469 0.139821,-1.438244 0.05989,-2.370641 -0.02041,-0.238125 -0.04426,-0.310678 -0.145657,-0.443241 -0.06669,-0.08718 -0.143077,-0.165702 -0.169755,-0.174491 -0.02828,-0.0093 -0.08245,0.06221 -0.129955,0.171588 -0.07052,0.162387 -0.07854,0.23706 -0.05981,0.55624 0.02256,0.384463 0.07513,0.864099 0.138252,1.261249 0.135932,0.855341 0.217219,1.300055 0.237634,1.300055 0.01298,0 0.04421,-0.135341 0.06941,-0.300759 z m -5.30946,-2.329766 c -0.09563,-0.0075 -0.19168,-0.02843 -0.213443,-0.0464 -0.02176,-0.01797 -0.153081,-0.06179 -0.291819,-0.09738 -0.453927,-0.11644 -0.576653,-0.333305 -0.429403,-0.758793 0.111796,-0.323042 0.174624,-0.407148 0.762536,-1.020749 0.454815,-0.474691 0.637057,-0.614304 0.637057,-0.488044 0,0.02305 -0.253601,0.298102 -0.563561,0.611219 -0.602454,0.608599 -0.720778,0.784417 -0.747354,1.11051 -0.01373,0.168507 -0.0032,0.207327 0.07505,0.275518 0.18721,0.163222 0.526222,0.229404 0.869173,0.169683 0.208482,-0.0363 0.285768,-0.06969 0.366864,-0.158482 0.317451,-0.347564 0.493893,-1.004157 0.446695,-1.662284 -0.01453,-0.202771 -0.06733,-0.613162 -0.117315,-0.91198 -0.04998,-0.298819 -0.088,-0.621893 -0.0845,-0.717942 0.0058,-0.159564 -0.04462,-0.704671 -0.06735,-0.727684 -0.0053,-0.0054 -0.09324,0.178007 -0.195444,0.407481 -0.344245,0.772935 -0.563414,1.057548 -0.814372,1.057548 -0.177051,0 -0.324738,-0.129454 -0.439524,-0.385268 -0.132936,-0.296258 -0.155684,-0.7874 -0.06977,-1.506378 0.05045,-0.422275 0.0557,-0.583142 0.02294,-0.704771 -0.04263,-0.158339 -0.156817,-0.259509 -0.251764,-0.223074 -0.04954,0.01901 -0.292538,0.433607 -0.292538,0.499122 0,0.157587 -0.655757,1.495564 -0.830747,1.695016 -0.1088,0.124012 -0.455823,0.34554 -0.646886,0.412951 -0.178871,0.06311 -0.270138,0.03609 -0.520961,-0.154216 -0.509495,-0.386576 -0.574842,-0.616668 -0.579201,-2.039454 -0.0037,-1.212506 0.01075,-1.572731 0.07927,-1.973432 0.03048,-0.178258 0.07201,-0.510063 0.0923,-0.737344 0.08301,-0.930102 0.119963,-1.285789 0.171941,-1.655085 0.08219,-0.583989 0.107691,-0.834364 0.08497,-0.834364 -0.01127,0 -0.09414,0.126609 -0.184174,0.281356 -0.09003,0.154744 -0.262594,0.412331 -0.383476,0.572411 -0.395307,0.523492 -0.761143,1.024041 -0.921808,1.261249 -0.370868,0.54755 -0.482853,0.602989 -0.528157,0.261474 -0.03915,-0.295123 -0.470678,-1.981764 -0.761491,-2.976314 -0.110164,-0.376752 -0.145393,-0.341684 -0.271184,0.269959 -0.08,0.389025 -0.195848,0.87474 -0.291546,1.222441 -0.107222,0.389574 -0.327608,1.312934 -0.463125,1.940381 -0.171064,0.79202 -0.405492,1.663614 -0.530071,1.970777 -0.06681,0.164708 -0.171025,0.444128 -0.231604,0.620929 -0.142145,0.414858 -0.323862,0.710329 -0.654785,1.064677 -0.360078,0.385569 -0.743311,0.585106 -1.327069,0.690962 -0.399061,0.07236 -0.558807,-0.01755 -0.75612,-0.425617 -0.08743,-0.180824 -0.09933,-0.246625 -0.08249,-0.456368 0.01997,-0.248747 0.07248,-0.360747 0.169129,-0.360747 0.03503,0 0.05346,0.04595 0.05346,0.1333 0,0.413476 0.315757,0.684564 0.895846,0.769113 0.298798,0.04355 0.316443,0.04173 0.486198,-0.05024 0.390267,-0.211427 0.851998,-0.771224 1.049572,-1.272494 0.24741,-0.627698 0.469921,-1.287895 0.571181,-1.694698 0.2061,-0.827998 0.256474,-1.040024 0.308867,-1.300056 0.0784,-0.38912 0.234906,-1.045119 0.379591,-1.591114 0.06505,-0.245458 0.141451,-0.568533 0.169792,-0.717941 0.02834,-0.149409 0.08688,-0.411361 0.130088,-0.582115 0.08994,-0.355411 0.161282,-0.837871 0.161282,-1.090639 0,-0.130845 0.01656,-0.178223 0.06791,-0.194275 0.03735,-0.01167 0.116749,-0.04752 0.176435,-0.07965 0.117344,-0.06318 0.221344,-0.02079 0.221344,0.09021 0,0.03025 0.03238,0.119799 0.07196,0.198989 0.07345,0.146972 0.149369,0.421336 0.259979,0.939539 0.103532,0.485047 0.183627,0.793237 0.217915,0.838501 0.01789,0.02362 0.04868,0.119668 0.06842,0.213441 0.08478,0.402744 0.382627,1.314683 0.429537,1.315136 0.03695,2.93e-4 0.723248,-0.930302 1.11001,-1.505244 0.131282,-0.195157 0.254953,-0.439515 0.314255,-0.620921 0.286833,-0.877438 0.360789,-1.077669 0.407084,-1.102141 0.136086,-0.07193 0.503927,-0.156476 0.536986,-0.123417 0.02233,0.02233 0.01618,0.154414 -0.01608,0.345465 -0.02873,0.170124 -0.0989,0.588731 -0.155933,0.930239 -0.05703,0.341506 -0.137698,0.804287 -0.179257,1.028402 -0.193547,1.043759 -0.29552,2.122985 -0.350182,3.70613 -0.04476,1.296192 -0.0333,1.630349 0.06917,2.017997 0.07776,0.294199 0.265339,0.675194 0.34804,0.706929 0.08773,0.03367 0.434992,-0.15583 0.604468,-0.329853 0.188989,-0.194057 0.679266,-1.176517 0.838562,-1.680385 0.153857,-0.486661 0.15898,-0.497315 0.284154,-0.59077 0.211902,-0.158207 0.602021,-0.157736 0.777356,8.8e-4 0.172547,0.156154 0.189618,0.249445 0.181744,0.993284 -0.01069,1.010674 0.0047,1.539733 0.0482,1.65404 l 0.03788,0.09958 0.111319,-0.135826 c 0.130607,-0.159364 0.177885,-0.253425 0.519041,-1.032624 l 0.256714,-0.586337 0.0012,-0.442067 c 7.33e-4,-0.276972 0.02697,-0.558009 0.07018,-0.752526 0.06583,-0.296299 0.07418,-0.31104 0.183124,-0.32315 0.06278,-0.007 0.130742,-0.02881 0.15102,-0.04851 0.02027,-0.0197 0.07441,-0.03582 0.120296,-0.03582 0.07942,0 0.08274,0.01442 0.06903,0.30076 -0.0079,0.165416 -0.0422,0.667491 -0.07619,1.115719 -0.06204,0.818367 -0.06228,1.770143 -4.4e-4,1.83045 0.065,0.06341 0.655702,-0.649193 0.873933,-1.054298 0.04599,-0.08537 0.170374,-0.286206 0.276403,-0.446287 0.10603,-0.160082 0.217884,-0.346567 0.248566,-0.414412 0.03069,-0.06784 0.143791,-0.272348 0.251351,-0.454451 0.107561,-0.182104 0.21996,-0.42452 0.249778,-0.538705 0.05406,-0.207031 0.212816,-0.416391 0.315739,-0.416391 0.02901,0 0.105249,0.109146 0.169428,0.242546 0.275119,0.571861 0.489497,0.997734 0.630008,1.251549 0.164168,0.296547 0.308526,0.681386 0.308526,0.822495 0,0.137503 0.05727,0.108139 0.219838,-0.112713 0.292453,-0.397305 0.529736,-0.901703 0.752774,-1.600182 L 27.44305,19.549145 27.39762,18.6932 c -0.05215,-0.982671 -0.04847,-2.109485 0.0077,-2.360141 0.02115,-0.09439 0.04882,-0.344653 0.06149,-0.556147 0.01267,-0.211496 0.04653,-0.498048 0.07526,-0.636787 0.02873,-0.138736 0.07015,-0.339566 0.09204,-0.446288 0.089,-0.433796 0.37049,-0.873171 0.559395,-0.873171 0.09259,0 0.255573,0.144313 0.332573,0.294474 0.07665,0.149486 0.124281,0.704659 0.08451,0.985073 -0.103909,0.732655 -0.267565,1.516449 -0.348273,1.667963 -0.0176,0.03305 -0.06973,0.243448 -0.11583,0.467562 -0.08029,0.390295 -0.20749,0.941246 -0.339314,1.469705 -0.0535,0.214463 -0.05538,0.307127 -0.01421,0.698538 0.07083,0.673434 0.185788,1.304751 0.289948,1.59244 0.17363,0.479567 0.423374,1.031712 0.543223,1.200977 0.113853,0.160798 0.127297,0.168047 0.279751,0.150865 0.391498,-0.04413 0.840541,-0.510982 1.184766,-1.23176 0.170293,-0.356582 0.190485,-0.438865 0.209494,-0.853769 0.01563,-0.341153 0.03002,-0.39584 0.192747,-0.732666 0.305381,-0.632085 0.636338,-0.853676 1.011806,-0.677452 0.136894,0.06425 0.153312,0.08753 0.163876,0.232345 0.0077,0.106022 -0.01785,0.223904 -0.07499,0.34546 -0.08559,0.182088 -0.497639,0.630634 -0.703865,0.766211 -0.0966,0.06351 -0.106073,0.09118 -0.106243,0.310462 -2.93e-4,0.295264 0.148661,0.730485 0.321726,0.940445 0.143697,0.174328 0.549148,0.445116 0.666475,0.445116 0.186604,0 0.748442,-0.485355 0.94338,-0.814961 0.147736,-0.249797 0.467513,-1.177363 0.508395,-1.474689 0.07635,-0.555299 0.129869,-0.834614 0.16915,-0.882875 0.02172,-0.02668 0.107574,-0.04851 0.190794,-0.04851 0.226297,0 0.255861,0.09543 0.170757,0.551241 -0.03705,0.198405 -0.06131,0.421859 -0.05394,0.496565 l 0.01342,0.135827 0.271655,0.01167 c 0.149409,0.0064 0.288243,0.02826 0.308519,0.04851 0.02027,0.02026 0.06868,0.03683 0.107554,0.03683 0.117391,0 0.163877,0.163916 0.1239,0.436893 -0.04095,0.279681 -0.0041,0.963977 0.06108,1.134816 0.02444,0.06403 0.08126,0.155724 0.126251,0.203759 0.0783,0.08359 0.08607,0.08454 0.181009,0.02234 0.298154,-0.195357 0.810746,-1.024971 1.047168,-1.694807 0.0664,-0.188117 0.120722,-0.381497 0.120722,-0.42973 0,-0.112491 0.139936,-0.17784 0.380201,-0.177555 0.332232,4.4e-4 0.465318,0.06069 0.55499,0.251465 0.07535,0.160309 0.07753,0.197912 0.03805,0.659809 -0.06246,0.730874 -0.05552,0.939414 0.03619,1.087812 0.131356,0.212539 0.219972,0.203205 0.475979,-0.05013 0.271066,-0.268239 0.549763,-0.789158 0.58957,-1.101984 0.053,-0.416506 0.185088,-1.063947 0.241955,-1.185958 0.0482,-0.10343 0.07071,-0.118745 0.128806,-0.08765 0.03872,0.02073 0.122098,0.02733 0.185288,0.01469 0.0632,-0.01264 0.125231,-0.0063 0.137864,0.01419 0.01263,0.02045 -0.003,0.244861 -0.03475,0.498709 -0.07574,0.605581 -0.08688,1.373404 -0.02386,1.645172 0.14974,0.645774 0.212772,0.853523 0.258499,0.851992 0.02134,-7.34e-4 0.108661,-0.06753 0.194039,-0.148486 0.13864,-0.131456 0.539475,-0.431852 0.576243,-0.431852 0.0079,0 -0.151153,0.165483 -0.353412,0.367742 -0.41226,0.412259 -0.393189,0.344556 -0.245478,0.871478 0.127059,0.453244 0.09215,1.127355 -0.07451,1.438753 -0.07618,0.142337 -0.383592,0.456589 -0.539043,0.55103 -0.07698,0.04677 -0.219103,0.150944 -0.315833,0.231508 -0.147236,0.122627 -0.219911,0.152694 -0.446288,0.184643 -0.536489,0.07571 -0.788226,-0.07146 -0.85691,-0.500989 -0.0201,-0.125695 7.34e-4,-0.204293 0.120897,-0.454728 0.127037,-0.264904 0.212656,-0.369496 0.684632,-0.836372 0.498676,-0.493285 0.615331,-0.588148 0.615331,-0.500377 0,0.05535 -0.281648,0.406721 -0.406713,0.507392 -0.27798,0.22376 -0.629501,0.620252 -0.728411,0.821596 -0.191791,0.390421 -0.117823,0.783571 0.157127,0.835152 0.163176,0.03061 0.5299,-0.01024 0.624978,-0.06961 0.154578,-0.09654 0.396689,-0.540041 0.491204,-0.899805 0.146214,-0.55658 0.127831,-0.728288 -0.168868,-1.577225 -0.149089,-0.426585 -0.20505,-0.683998 -0.269972,-1.241845 l -0.02936,-0.252248 -0.09468,0.155229 c -0.271963,0.445875 -0.616247,0.716873 -0.911624,0.717577 -0.211398,4.4e-4 -0.450559,-0.126754 -0.561406,-0.298727 -0.124132,-0.192587 -0.15122,-0.689579 -0.06747,-1.237914 0.06663,-0.436247 0.04497,-0.610205 -0.07822,-0.628392 -0.1055,-0.01557 -0.139646,0.03629 -0.26312,0.39965 -0.09931,0.29226 -0.404644,0.910445 -0.628906,1.273301 -0.233082,0.377127 -0.641752,0.686485 -0.906863,0.686485 -0.154523,0 -0.441359,-0.209744 -0.527116,-0.385447 -0.05709,-0.116966 -0.05953,-0.173719 -0.02004,-0.465692 0.113401,-0.838351 0.127563,-0.978628 0.107041,-1.060283 -0.02092,-0.08323 -0.04033,-0.08728 -0.429274,-0.08955 l -0.407365,-0.0024 -0.0988,0.266551 c -0.05434,0.146601 -0.0988,0.293444 -0.0988,0.326315 0,0.03287 -0.07171,0.197611 -0.159365,0.366087 -0.198395,0.38134 -0.622994,0.833253 -0.927248,0.986897 -0.28602,0.144437 -0.681159,0.177596 -0.874643,0.07339 -0.0739,-0.03979 -0.134357,-0.08467 -0.134357,-0.09972 0,-0.01505 -0.03547,-0.03862 -0.07883,-0.05238 -0.04336,-0.01376 -0.123676,-0.0717 -0.178493,-0.12874 -0.10225,-0.10641 -0.363603,-0.605569 -0.363603,-0.694443 0,-0.119218 -0.08601,-0.03002 -0.20478,0.212346 -0.180064,0.367466 -0.297629,0.53736 -0.558181,0.806634 -0.323093,0.333907 -0.527978,0.425509 -0.951729,0.425509 -0.321234,0 -0.342787,-0.0054 -0.460145,-0.116423 -0.181533,-0.17165 -0.345138,-0.556744 -0.461642,-1.086613 -0.02347,-0.106721 -0.07665,-0.342478 -0.11819,-0.523903 -0.04154,-0.181426 -0.08729,-0.43028 -0.101656,-0.55301 -0.01438,-0.122728 -0.03983,-0.223143 -0.05658,-0.223143 -0.01675,0 -0.0518,0.06548 -0.07788,0.145529 -0.02609,0.08004 -0.08652,0.232845 -0.134284,0.339566 -0.04777,0.10672 -0.09863,0.232764 -0.113023,0.280094 -0.01439,0.04733 -0.170738,0.301173 -0.347431,0.564091 -0.270016,0.401786 -0.325108,0.510537 -0.345391,0.68179 -0.03379,0.285285 -0.20458,0.585127 -0.376403,0.66081 -0.07488,0.03298 -0.171077,0.06461 -0.213765,0.07028 -0.04269,0.0056 -0.131225,0.02121 -0.19675,0.03452 -0.253729,0.05159 -0.637614,-0.151367 -0.637614,-0.337097 0,-0.109179 0.08878,-0.08633 0.161543,0.04158 0.102526,0.180213 0.41866,0.247918 0.615281,0.131771 0.156785,-0.09262 0.208151,-0.214542 0.20625,-0.489571 -0.0018,-0.263129 -0.126026,-0.596569 -0.537977,-1.444241 -0.114101,-0.234787 -0.242481,-0.509837 -0.285288,-0.61122 -0.04281,-0.101385 -0.09455,-0.184337 -0.114988,-0.184337 -0.04255,0 -0.229401,0.291361 -0.385754,0.601518 -0.228561,0.453397 -0.967494,1.594807 -1.238957,1.913785 -0.175254,0.205928 -0.323692,0.409668 -0.329866,0.452755 -0.0097,0.06795 0.0164,0.247601 0.107375,0.738072 0.04979,0.268448 0.06161,0.831273 0.022,1.047806 -0.0931,0.508923 -0.529053,1.136871 -0.843951,1.215631 -0.222704,0.0557 -0.363212,0.06933 -0.55713,0.05401 z m 9.27083,-6.009378 c 0.214171,-0.184398 0.469125,-0.573515 0.469125,-0.715983 0,-0.105715 -0.0859,-0.229601 -0.159201,-0.229601 -0.05213,0 -0.269041,0.242563 -0.372786,0.416881 -0.140366,0.23585 -0.207978,0.40637 -0.232728,0.58693 -0.02163,0.157805 -0.01815,0.166698 0.05058,0.129318 0.04059,-0.02208 0.150847,-0.106473 0.245009,-0.187545 z M 27.89156,17.924719 c 0.05887,-0.282853 0.156912,-0.680183 0.217869,-0.882952 0.129878,-0.43203 0.233412,-0.910856 0.348232,-1.610518 0.09975,-0.60786 0.08684,-1.003103 -0.04203,-1.285395 l -0.08641,-0.189295 -0.05446,0.194038 c -0.04966,0.176935 -0.226642,0.883078 -0.323534,1.290912 -0.02163,0.09102 -0.03931,0.225028 -0.03931,0.297797 0,0.07277 -0.01687,0.216593 -0.03749,0.319606 -0.08721,0.435689 -0.158087,1.164667 -0.176676,1.817219 -0.02407,0.844747 0.02552,0.857181 0.19382,0.04858 z m -3.239492,0.900161 c 0,-0.02247 0.117878,-0.0936 0.26195,-0.158069 0.144074,-0.06447 0.292275,-0.133408 0.329339,-0.153191 0.03706,-0.01978 0.09013,-0.03597 0.117919,-0.03597 0.02779,0 0.233226,-0.07095 0.456517,-0.157667 0.432162,-0.167832 0.956103,-0.346832 1.015189,-0.346832 0.10026,0 -0.03829,0.07799 -0.307256,0.172973 -0.166072,0.05864 -0.35434,0.129611 -0.418372,0.157708 -0.06403,0.02809 -0.378092,0.149144 -0.697912,0.268996 -0.31982,0.119851 -0.598361,0.234784 -0.618982,0.255405 -0.04998,0.04998 -0.138392,0.04783 -0.138392,-0.0034 z m 2.272187,-0.886176 c 0.02027,-0.01895 0.08052,-0.04604 0.133885,-0.06022 0.09324,-0.02477 0.09408,-0.02343 0.02169,0.03444 -0.07939,0.06346 -0.221029,0.08693 -0.155574,0.02577 z m 1.306227,-0.280946 c 0.008,-0.02406 0.179743,-0.09168 0.381608,-0.15028 0.201867,-0.0586 0.471809,-0.143656 0.599875,-0.189017 0.128065,-0.04536 0.320163,-0.113476 0.426883,-0.151363 0.106722,-0.03789 0.211502,-0.07962 0.232846,-0.09273 0.02134,-0.01312 0.230907,-0.09667 0.465692,-0.185685 0.234786,-0.08901 0.485802,-0.187781 0.557813,-0.219482 0.07201,-0.0317 0.138361,-0.05021 0.147444,-0.04113 0.01768,0.01768 -0.478706,0.258467 -0.53283,0.258467 -0.01777,0 -0.168609,0.06259 -0.335209,0.139083 -0.724284,0.332559 -1.678672,0.674064 -1.887554,0.675417 -0.03913,2.94e-4 -0.06459,-0.01922 -0.05657,-0.04328 z m 2.902461,-1.081682 c 0.03201,-0.02069 0.0844,-0.03666 0.116423,-0.03549 0.03838,0.0015 0.03178,0.0135 -0.0194,0.03549 -0.106685,0.04584 -0.167958,0.04584 -0.09702,0 z"
     id="path965" />
  <circle
     style="fill:none;fill-opacity:1;stroke:#ffffff;stroke-width:1.1;stroke-miterlimit:4;stroke-dasharray:none;stroke-opacity:1"
     id="circle4236"
     cx="75.712318"
     cy="24.016752"
     r="18.858358" />
  <path
     d="m -89.21759,28.996135 c -0.05682,-0.09414 -0.135848,-2.287457 -0.137313,-3.811834 -5.9e-4,-0.761537 -0.03553,-1.503806 -0.07732,-1.649497 -0.11546,-0.402602 0.296625,-0.889482 1.090563,-1.288491 0.333583,-0.167641 0.651303,-0.304815 0.706039,-0.304815 0.05473,0 0.241553,-0.09892 0.415151,-0.219833 0.406945,-0.283435 0.552273,-0.366918 1.467022,-0.842804 0.417684,-0.217288 0.777409,-0.417815 0.799392,-0.445628 0.04406,-0.05571 0.320559,-0.219641 0.658483,-0.390362 0.211139,-0.106674 0.380728,-0.08178 0.380728,0.05585 0,0.0365 -0.266095,0.192716 -0.59133,0.347169 -0.834263,0.39619 -3.129787,1.760739 -3.022292,1.796567 0.04916,0.01648 0.315763,-0.03071 0.592457,-0.104595 0.276694,-0.07393 0.700931,-0.145704 0.942746,-0.159556 0.593823,-0.034 2.195736,-0.234965 3.07766,-0.386107 0.395702,-0.06782 1.223068,-0.196947 1.838604,-0.286958 0.615534,-0.09003 1.514849,-0.239387 1.998479,-0.331938 0.483635,-0.09254 1.055958,-0.186232 1.271836,-0.20817 0.305731,-0.03109 0.453034,-0.09867 0.666278,-0.305775 l 0.273763,-0.265879 -0.09492,-0.464984 c -0.0522,-0.255741 -0.178517,-0.576036 -0.280696,-0.711766 -0.363427,-0.482749 -0.880846,-0.969338 -1.137981,-1.070186 -0.382682,-0.150081 -1.166431,-0.04855 -1.672685,0.216694 -0.228154,0.119529 -0.44012,0.192029 -0.471045,0.161122 -0.08881,-0.08883 0.135264,-0.307999 0.485041,-0.474437 0.176498,-0.08396 0.464779,-0.227678 0.640647,-0.319343 0.434234,-0.226326 0.830694,-0.212756 1.267791,0.04341 0.752878,0.441208 1.387817,1.249653 1.566524,1.994566 0.09064,0.377808 0.0914,0.527827 0.0045,0.890123 -0.08089,0.337153 -0.09462,1.12244 -0.06074,3.470977 l 0.0438,3.035246 -0.21182,0.08019 c -0.24815,0.09392 -1.510555,0.310956 -2.614288,0.44943 -0.178236,0.02234 -0.555938,0.07622 -0.839361,0.119656 -0.28342,0.04346 -0.911013,0.134715 -1.394644,0.202802 -0.483629,0.06808 -1.11201,0.160838 -1.396397,0.206133 -0.284391,0.04528 -0.96787,0.134466 -1.51885,0.198155 -0.550975,0.0637 -1.271569,0.167286 -1.601317,0.230235 -0.329748,0.06293 -0.977258,0.155127 -1.438907,0.204884 -1.243736,0.134032 -1.339398,0.153462 -1.388709,0.281959 -0.04817,0.125509 -0.176966,0.156943 -0.236832,0.05778 z m 1.305783,-0.664607 c 0.373716,-0.04686 0.985251,-0.136313 1.358968,-0.198739 0.373714,-0.06241 0.805387,-0.129685 0.95927,-0.149499 0.153896,-0.01983 0.443746,-0.05749 0.64414,-0.08375 0.200392,-0.02626 0.524147,-0.06675 0.719451,-0.08999 0.460603,-0.05481 3.327244,-0.464359 4.711789,-0.673157 1.490795,-0.22483 2.666431,-0.395331 2.737921,-0.397086 0.110984,-0.0029 0.06196,-0.619712 -0.05705,-0.718523 -0.09235,-0.07664 -0.222932,-0.071 -0.619528,0.02679 -0.276376,0.06816 -0.700351,0.14502 -0.942167,0.17078 -0.241818,0.02577 -0.637516,0.09655 -0.879334,0.157276 -0.241812,0.0607 -0.871337,0.169415 -1.398932,0.241555 -0.527601,0.07214 -1.136209,0.165699 -1.352467,0.207903 -0.216254,0.04217 -0.719869,0.114224 -1.119145,0.16004 -0.985603,0.113102 -1.679858,0.209556 -2.204835,0.306335 -0.241817,0.04461 -1.015227,0.134199 -1.718694,0.199163 -0.703467,0.06497 -1.350972,0.135847 -1.438906,0.157491 -0.08793,0.02167 -0.253917,0.05899 -0.368856,0.08297 -0.17646,0.03683 -0.203439,0.07797 -0.173376,0.264623 0.07812,0.48504 0.04057,0.473991 1.14178,0.335833 z m 0.239818,-0.997717 c 0.417682,-0.02686 1.281028,-0.119413 1.918543,-0.205752 0.637514,-0.08635 1.680719,-0.225769 2.318239,-0.309862 0.637513,-0.0841 1.698705,-0.246278 2.35821,-0.360405 0.659494,-0.114134 1.594784,-0.274954 2.078417,-0.357382 1.076572,-0.183486 1.960886,-0.382966 2.110055,-0.475961 0.178964,-0.111571 0.03901,-0.325506 -0.212987,-0.325506 -0.124476,0 -0.262503,0.0362 -0.306699,0.08037 -0.04419,0.04419 -0.599977,0.170651 -1.235059,0.281001 -0.635088,0.110359 -1.258997,0.236071 -1.386468,0.279362 -0.127473,0.04331 -0.363827,0.07872 -0.525241,0.07872 -0.161421,0 -0.632684,0.0728 -1.047266,0.16182 -0.414584,0.089 -0.897676,0.160671 -1.073541,0.159239 -0.298971,-0.0026 -1.030429,0.104851 -2.158359,0.316444 -1.055225,0.197967 -1.298496,0.230394 -1.770705,0.235994 -0.481815,0.0059 -2.289551,0.281164 -2.434923,0.371016 -0.160688,0.09932 0.04171,0.203243 0.316795,0.162688 0.160356,-0.02368 0.633307,-0.06495 1.050989,-0.09178 z m 0.839363,-0.678912 c 0.879331,-0.09246 1.976497,-0.235819 2.438145,-0.31858 0.461651,-0.08275 1.0552,-0.171957 1.318999,-0.198217 1.35047,-0.134482 4.435453,-0.677417 5.789079,-1.018837 l 0.433146,-0.109275 -0.002,-0.674902 c -0.004,-1.261993 0.01333,-1.194516 -0.307064,-1.194516 -0.400108,0 -0.71193,0.151948 -1.387353,0.676024 -0.804928,0.62457 -1.572987,0.933287 -1.722006,0.692172 -0.02403,-0.0389 -0.20282,-0.09459 -0.397293,-0.123724 -0.194468,-0.02916 -0.558216,-0.163852 -0.808315,-0.299314 -0.40575,-0.219769 -0.507892,-0.24203 -0.94817,-0.206688 -0.39034,0.03133 -0.588695,0.100553 -0.949405,0.331289 -0.714162,0.456846 -1.158511,0.674832 -1.665682,0.817132 -0.542723,0.15228 -0.925819,0.08994 -1.621788,-0.263898 -0.308363,-0.156759 -0.526153,-0.207423 -0.879299,-0.204505 -0.568575,0.0045 -0.968667,0.249073 -1.390111,0.849103 -0.26598,0.378683 -0.271765,0.403525 -0.218224,0.936681 l 0.05501,0.547682 0.33189,-0.03475 c 0.182534,-0.01913 1.051342,-0.11041 1.930675,-0.20286 z m -1.290079,-2.504473 c 0.151282,-0.07176 0.434057,-0.130518 0.628422,-0.130518 0.332504,0 1.093518,0.20398 1.181262,0.316623 0.06986,0.08969 0.757378,0.322889 0.951947,0.322889 0.255531,0 1.025362,-0.353353 1.865182,-0.856117 0.578968,-0.346604 0.784512,-0.426526 1.19909,-0.466214 0.436729,-0.04183 0.546087,-0.02253 0.860073,0.151681 1.448462,0.803629 1.730275,0.78907 2.860939,-0.147785 0.27651,-0.229106 0.582273,-0.453042 0.679487,-0.497641 0.09722,-0.04461 0.277894,-0.129137 0.401516,-0.187859 0.177061,-0.08411 0.257426,-0.08638 0.378627,-0.01071 0.08462,0.05285 0.17233,0.09608 0.194915,0.09608 0.0226,0 0.04102,-0.413687 0.04102,-0.919297 0,-0.701007 -0.02466,-0.919302 -0.103932,-0.919302 -0.05716,0 -0.138094,0.03094 -0.17986,0.06875 -0.0777,0.07034 -0.894501,0.230372 -2.314242,0.453424 -0.439666,0.06908 -0.979254,0.159039 -1.199088,0.199935 -0.219834,0.04087 -0.741437,0.114466 -1.159119,0.163469 -0.417681,0.04898 -1.191094,0.162637 -1.718694,0.252508 -0.527598,0.08987 -1.265038,0.188124 -1.638755,0.21839 -0.871805,0.0706 -3.080474,0.462455 -3.413486,0.605621 -0.396737,0.170557 -0.485545,0.38497 -0.541046,1.30625 l -0.05001,0.830195 0.400343,-0.359946 c 0.220192,-0.197975 0.524106,-0.418671 0.675373,-0.49045 z m 4.597977,-3.723352 c -0.245672,-0.153029 -0.390582,-0.480645 -0.480749,-1.086912 -0.08505,-0.571831 -0.08026,-0.622001 0.08003,-0.838807 0.09376,-0.12681 0.170482,-0.25385 0.170482,-0.282279 0,-0.13956 0.511067,-0.670938 0.757999,-0.78811 0.262383,-0.124515 0.318714,-0.123839 0.897607,0.01046 0.497563,0.115473 0.678163,0.20088 0.928864,0.43924 l 0.311213,0.295889 -0.0298,0.590658 c -0.03515,0.695639 -0.264064,1.118698 -0.795816,1.470593 -0.27969,0.185093 -0.426449,0.220115 -1.018542,0.243075 -0.380473,0.01482 -0.750038,-0.0094 -0.821258,-0.05383 z m 1.552379,-0.453728 c 0.524443,-0.265565 0.775436,-0.660918 0.775436,-1.221394 0,-0.372978 -0.165751,-0.606508 -0.580741,-0.818217 -0.272288,-0.13891 -0.414318,-0.159756 -0.808054,-0.11861 -0.515378,0.05387 -0.769263,0.212624 -0.770057,0.481534 -2.35e-4,0.09212 -0.05422,0.270508 -0.119898,0.396443 -0.202514,0.388306 -0.155393,0.87472 0.112502,1.16151 0.206504,0.221066 0.281411,0.248272 0.683455,0.248272 0.257761,0 0.561324,-0.05559 0.707365,-0.129537 z m -3.200376,-5.985289 c -0.920638,-0.256382 -2.095536,-1.004419 -2.346132,-1.49374 -0.1326,-0.258947 -0.141308,-0.367636 -0.07278,-0.908273 0.103001,-0.812261 0.445063,-1.7801224 0.883033,-2.4984324 0.195584,-0.320762 0.429324,-0.716466 0.519425,-0.879333 0.0901,-0.162869 0.260972,-0.44829 0.37971,-0.63427 0.118751,-0.185989 0.215892,-0.358833 0.215892,-0.384096 0,-0.152681 0.699641,-1.032798 1.084122,-1.363788 1.284278,-1.10558 1.952762,-1.876831 2.444212,-2.819969 0.328179,-0.629798 0.348722,-0.7075 0.348722,-1.318998 0,-0.504489 -0.03921,-0.73145596 -0.175321,-1.01510696 -0.464702,-0.9684 -1.920292,-1.77714504 -2.937245,-1.631978 -0.222625,0.031779 -0.625458,0.066746 -0.895183,0.077675 -0.410248,0.016655 -0.572897,0.070623 -0.994986,0.3302516 -0.709909,0.436645 -1.664549,1.4030674 -1.975891,2.00026636 -0.140742,0.269952 -0.255885,0.546619 -0.255885,0.614811 0,0.0682 -0.04164,0.149716 -0.09257,0.181188 -0.204711,0.126516 -8.89e-4,-0.749138 0.275087,-1.181498 0.1492,-0.23379396 0.367538,-0.57797106 0.485177,-0.76482446 0.117628,-0.1868585 0.244544,-0.3397433 0.282006,-0.3397433 0.03747,0 0.195261,-0.1632027 0.350667,-0.3626772 0.318657,-0.4090054 0.828445,-0.80588844 1.133491,-0.88245394 0.11226,-0.02817 0.204125,-0.080723 0.204125,-0.116761 0,-0.036051 0.206843,-0.1477838 0.459649,-0.24832 0.39104,-0.1554939 0.602834,-0.1823849 1.418923,-0.1801048 1.084188,0.00293 1.381088,0.094521 2.137344,0.6586657 1.04723,0.78118194 1.430425,1.32794144 1.653746,2.359661 0.125522,0.579877 0.06198,1.074726 -0.211095,1.643877 -0.248675,0.51831 -0.316619,0.599474 -1.332742,1.592021 -2.872723,2.806086 -3.207409,3.163126 -3.496287,3.729852 -0.46996,0.921971 -0.564643,1.298931 -0.526207,2.0949484 0.06495,1.344967 0.295904,1.736165 1.32114,2.237766 0.40233,0.196841 0.505684,0.21086 1.601214,0.217125 1.110992,0.0064 1.194647,-0.0045 1.629272,-0.208024 0.607675,-0.284802 1.397456,-0.862503 1.724712,-1.261587 0.453265,-0.552739 0.670923,-0.356595 0.302299,0.27242 -0.17706,0.302116 -0.449686,0.567142 -1.388699,1.349957 -1.069199,0.891346 -3.065728,1.436259 -4.152973,1.133474 z m 1.857424,-0.615655 c 0.175863,-0.04255 0.418683,-0.09653 0.53959,-0.11991 0.431422,-0.08344 0.208641,-0.144056 -0.479628,-0.13052 -0.966184,0.01898 -2.119959,-0.274579 -2.418169,-0.615301 -0.022,-0.02511 -0.151564,-0.123546 -0.287989,-0.218731 -0.351789,-0.245475 -0.591342,-0.986809 -0.591342,-1.830014 0,-0.35229 -0.02381,-0.6643584 -0.05294,-0.6934774 -0.09452,-0.09452 -0.360419,0.6137544 -0.404514,1.0775624 -0.07306,0.76838 0.01109,0.994503 0.596783,1.601033 0.289528,0.299898 0.574472,0.54527 0.633209,0.54527 0.05872,0 0.106789,0.03191 0.106789,0.07083 0,0.130569 0.594826,0.355659 1.07918,0.408355 0.497205,0.0541 0.736194,0.03634 1.279027,-0.09508 z m -3.403484,-0.603936 c -0.191957,-0.25433 -0.483349,-0.516486 -0.526321,-0.473509 -0.05084,0.05084 0.462688,0.609827 0.56216,0.611934 0.03836,9.88e-4 0.02223,-0.06147 -0.03583,-0.138411 z m 5.20532,-9.5119944 c 0.350986,-0.516908 0.400215,-0.631645 0.479183,-1.116829 0.139327,-0.856137 -0.21882,-1.86531536 -0.83364,-2.34893126 -0.299287,-0.235421 -0.353193,-0.1325996 -0.09276,0.176909 0.420367,0.4995794 0.564218,0.9279453 0.560595,1.66930826 -0.0029,0.664745 -0.01262,0.697653 -0.439666,1.516934 -0.239987,0.460594 -0.44993,0.874281 -0.466542,0.919304 -0.05944,0.161105 0.567162,-0.484369 0.792823,-0.816698 z m -1.046785,-4.3027799 c -0.30888,-0.3721701 -1.591758,-0.6528902 -2.313863,-0.5063127 -0.684323,0.1389107 -0.7426,0.2287119 -0.115116,0.177377 0.422398,-0.034546 0.774321,-9.895e-4 1.398937,0.1328661 0.459012,0.098474 0.868733,0.2110281 0.910505,0.25013344 0.130435,0.1221298 0.228825,0.077624 0.119528,-0.054083 z"
     style="fill:#000000;fill-opacity:1;stroke:none;stroke-width:0.166499;stroke-miterlimit:4;stroke-dasharray:none;stroke-opacity:1"
     id="path3935" />
  <path
     style="fill:#ffffff;fill-opacity:1;stroke:#ffffff;stroke-width:0.139692;stroke-miterlimit:4;stroke-dasharray:none;stroke-opacity:1"
     d="m 44.657809,46.357019 c -0.04022,-0.02347 -0.308781,-0.05021 -0.59685,-0.05942 -0.288069,-0.0092 -0.523782,-0.03406 -0.523805,-0.05524 -2.1e-5,-0.0212 -0.09869,-0.03216 -0.219266,-0.02436 -0.120575,0.0077 -0.219249,0.03134 -0.219267,0.05239 -2.2e-5,0.02101 -0.04561,0.01382 -0.101299,-0.01604 -0.0557,-0.0298 -0.132438,-0.04221 -0.170542,-0.02757 -0.03809,0.01454 -0.06927,0.01014 -0.06927,-0.0098 0,-0.02002 -0.186833,-0.03804 -0.415186,-0.04008 -0.228351,-0.0023 -0.429343,-0.01784 -0.446653,-0.03515 -0.01731,-0.0173 -0.212899,-0.03148 -0.434643,-0.03148 -0.221749,0 -0.416725,-0.02192 -0.433289,-0.04873 -0.04154,-0.06724 -0.206934,-0.06137 -0.230109,0.0082 -0.0144,0.0432 -0.07525,0.04271 -0.252873,-0.0023 -0.128651,-0.03238 -0.554996,-0.06869 -0.947436,-0.08064 -0.972735,-0.02966 -1.355149,-0.05961 -1.457041,-0.114141 -0.0474,-0.02536 -0.173585,-0.03044 -0.280406,-0.01123 -0.106825,0.0192 -0.347709,0.01586 -0.535303,-0.0073 -0.187599,-0.02319 -0.472643,-0.04946 -0.633437,-0.05838 -0.160796,-0.009 -0.511622,-0.03727 -0.779617,-0.06292 -0.267992,-0.02568 -0.583055,-0.03646 -0.700143,-0.02396 -0.135305,0.01435 -0.226038,0.0018 -0.248983,-0.03569 -0.02798,-0.04525 -0.08186,-0.0447 -0.239389,0.0027 -0.15502,0.04644 -0.216816,0.04739 -0.260206,0.0041 -0.0313,-0.0313 -0.165927,-0.0569 -0.299175,-0.0569 -0.133248,0 -0.419393,-0.03229 -0.635873,-0.07172 -0.216482,-0.03945 -0.667687,-0.08262 -1.002679,-0.09593 -1.154338,-0.04592 -1.682862,-0.0747 -2.291796,-0.124879 -0.335911,-0.02768 -0.675776,-0.03768 -0.755249,-0.02223 -0.07948,0.01549 -0.407622,-0.0073 -0.729212,-0.05029 -0.514854,-0.06902 -1.163477,-0.122026 -2.338843,-0.191123 -0.187596,-0.01106 -0.43975,-0.04252 -0.560349,-0.07 -0.380492,-0.08668 -2.880331,-0.01472 -4.848226,0.139539 -0.34839,0.0273 -1.050042,0.06137 -1.559229,0.07567 -0.509184,0.01435 -0.958681,0.03764 -0.998881,0.05184 -0.04019,0.01418 -0.555475,0.03642 -1.145057,0.04935 -0.589583,0.01291 -1.212893,0.04293 -1.38513,0.06674 -0.172238,0.02378 -0.327148,0.0346 -0.344242,0.02401 -0.01709,-0.01051 -0.49012,0.0018 -1.051166,0.02699 -0.561044,0.02541 -1.4038,0.04785 -1.872785,0.04987 -0.468989,0.0023 -1.028117,0.01997 -1.242512,0.03981 -0.214392,0.01988 -0.400769,0.02201 -0.414171,0.0048 -0.04223,-0.05434 -0.194902,-0.09613 -0.194902,-0.05335 0,0.0225 -0.213785,0.05593 -0.475078,0.07427 -0.261291,0.01843 -0.6176001,0.04357 -0.7917966,0.05608 -0.1741937,0.0125 -0.4537586,0.02468 -0.6212536,0.02713 -0.1674958,0.0023 -0.3045375,0.0187 -0.3045375,0.03619 0,0.01749 -0.2357111,0.03596 -0.5238031,0.04107 -1.0804204,0.01916 -1.6372524,0.05994 -1.6763592,0.122744 -0.030721,0.04934 -0.057699,0.04937 -0.1369972,0 -0.071976,-0.04461 -0.1546012,-0.04866 -0.3048232,-0.0149 -0.1377966,0.03093 -0.2163574,0.02971 -0.2370925,-0.0036 -0.017052,-0.02757 -0.050486,-0.05151 -0.074288,-0.05315 -0.1223843,-0.0082 -0.284556,-0.475727 -0.1650931,-0.475727 0.026799,0 0.048726,0.04384 0.048726,0.09744 0,0.05361 0.016446,0.09742 0.036546,0.09737 0.045926,0 0.04679,-1.564355 9.071e-4,-1.636767 -0.019982,-0.03152 -0.3056094,-0.0663 -0.7001778,-0.08521 -0.5533056,-0.02654 -0.6774174,-0.04644 -0.7311868,-0.117292 -0.097771,-0.128801 -0.081034,-0.201952 0.053954,-0.235835 0.066998,-0.01675 0.1221501,-0.0556 0.1225609,-0.08621 5.435e-4,-0.03519 0.015671,-0.03211 0.041351,0.0085 0.028203,0.04448 0.223356,0.07259 0.6390164,0.09202 L 5.592306,43.444278 5.560044,43.035551 C 5.5422861,42.810592 5.5187208,42.319675 5.5076489,41.944501 5.4965796,41.569308 5.4734897,40.77994 5.4563366,40.190367 5.439189,39.600778 5.4150713,39.063581 5.402754,38.996581 5.3904348,38.929584 5.3706875,38.23889 5.3588708,37.46171 5.332438,35.723122 5.275686,34.084515 5.212047,33.22255 5.198198,33.034964 5.175609,32.618352 5.161854,32.296772 5.134335,31.653407 4.9575351,30.225425 4.897364,30.160545 4.876448,30.137985 4.845493,30.444981 4.828567,30.84271 c -0.016925,0.397735 -0.052449,0.964362 -0.078944,1.259148 -0.026496,0.294786 -0.071199,0.974521 -0.099347,1.510504 -0.028144,0.535983 -0.057854,1.062223 -0.06602,1.16942 -0.00816,0.107201 -0.030368,0.425136 -0.049346,0.706534 -0.066044,0.979426 -0.1226623,1.733638 -0.175579,2.338844 -0.052712,0.602906 -0.07152,0.893974 -0.2077959,3.215912 -0.083952,1.430373 -0.073801,1.280634 -0.1090232,1.607943 -0.015857,0.147384 -0.047647,0.311839 -0.070632,0.365428 -0.022986,0.05362 -0.051762,0.202504 -0.06395,0.330884 -0.023615,0.248783 -0.1487156,0.437382 -0.2743169,0.413568 -0.093876,-0.01785 -0.1417357,-0.367474 -0.088554,-0.646993 0.1130986,-0.594431 0.133743,-0.76467 0.1339994,-1.104983 1.562e-4,-0.205743 0.021124,-0.534656 0.046594,-0.730878 0.025472,-0.19624 0.059121,-0.587031 0.074777,-0.868411 0.015653,-0.281398 0.038027,-0.577397 0.049708,-0.657804 0.011676,-0.0804 0.033878,-0.35276 0.049326,-0.605244 0.015449,-0.252488 0.037728,-0.474675 0.04952,-0.493757 0.011785,-0.01907 0.043521,-0.404505 0.070521,-0.856531 0.026998,-0.452021 0.08131,-1.205554 0.1206971,-1.674555 0.1228649,-1.46301 0.2068843,-2.62002 0.2451549,-3.375981 0.1026697,-2.028035 0.1334264,-2.537462 0.1947814,-3.226368 0.1347526,-1.512995 0.1770782,-3.273224 0.1095463,-4.555864 -0.027515,-0.522595 -0.05429,-1.103662 -0.059504,-1.291246 -0.033869,-1.218648 -0.088279,-2.587366 -0.1039256,-2.614291 -0.01823,-0.03139 -0.045165,-0.787656 -0.092552,-2.599377 -0.04503,-1.721483 -0.074645,-2.325471 -0.1180064,-2.406485 -0.025195,-0.04708 -0.024847,-0.178987 9.071e-4,-0.316479 0.024222,-0.129671 0.032633,-0.254219 0.018687,-0.276779 C 4.290772,15.386829 4.2628534,14.145049 4.2444274,11.41772 4.2345493,9.9570985 4.2132803,8.4112678 4.1971445,7.982486 4.1428869,6.5405453 4.112031,5.9365899 4.0874307,5.8350068 c -0.017736,-0.073241 0.033185,-0.1569606 0.1852415,-0.304547 0.1153347,-0.1119327 0.23338,-0.2035344 0.262321,-0.2035344 0.028942,0 0.1002846,-0.054806 0.1585384,-0.1218041 0.099441,-0.1143821 0.3014639,-0.1694833 0.3014639,-0.082228 0,0.021767 0.1370416,0.041473 0.3045379,0.043775 0.744017,0.010128 1.0338753,0.00571 1.0698655,-0.016573 0.021256,-0.013076 0.038829,-0.1486732 0.039046,-0.301195 1.839e-4,-0.1525039 0.023679,-0.474638 0.052127,-0.7158149 0.028448,-0.2411954 0.052266,-0.5152823 0.052926,-0.6090752 0.0015,-0.2155603 0.058287,-0.2848051 0.2097281,-0.2558551 0.071346,0.013628 0.1513212,-0.00884 0.1980759,-0.055543 0.0922,-0.09221 0.231739,-0.1008648 0.3576977,-0.022193 0.067338,0.042044 0.1447539,0.042429 0.307287,0.00186 0.1546841,-0.038951 0.27056,-0.040002 0.402259,-0.00366 0.1017417,0.028086 0.2376409,0.037845 0.3019978,0.021695 0.064357,-0.016206 0.3961854,-0.00755 0.7373932,0.019005 0.5864277,0.045726 1.4874754,0.079723 3.3246704,0.1254504 0.789427,0.019629 2.74242,0.098176 3.654442,0.1469601 0.254593,0.013628 0.771614,0.034494 1.148935,0.04639 0.377321,0.011971 0.717185,0.031618 0.755251,0.043829 0.03806,0.012157 0.398112,0.034716 0.8001,0.050018 1.682791,0.06407 3.115083,0.1290231 3.800619,0.1723927 0.780327,0.049355 3.716166,0.0151 3.788439,-0.044219 0.0067,-0.00552 0.165668,-0.016205 0.353264,-0.023942 0.426104,-0.017496 1.777228,-0.1146403 2.07085,-0.1490045 0.120595,-0.014181 0.467234,-0.036098 0.770309,-0.04884 0.303074,-0.012709 0.79642,-0.044327 1.096332,-0.070147 0.29991,-0.02582 0.851273,-0.060386 1.225251,-0.076795 0.373984,-0.016391 0.691919,-0.037221 0.706526,-0.046242 0.01459,-0.00903 0.388354,-0.041107 0.830541,-0.071307 1.857449,-0.1268868 2.535453,-0.1655977 3.873708,-0.2212327 1.199181,-0.049852 2.56077,-0.1459287 3.181162,-0.2244552 0.206707,-0.026151 0.540282,-0.058914 0.741277,-0.072798 0.200991,-0.013809 0.409297,-0.04357 0.462896,-0.065947 0.191806,-0.080091 1.428738,-0.276057 1.595769,-0.252816 0.0469,0.00644 0.08528,-0.00995 0.08528,-0.036591 0,-0.026668 0.05702,-0.042393 0.126699,-0.034952 0.06968,0.00737 0.305397,-0.013996 0.523805,-0.047495 0.820192,-0.1259664 0.942177,-0.1314725 0.97572,-0.044051 0.03474,0.09057 -0.122247,0.3377326 -0.262086,0.4125574 -0.04997,0.026758 -0.185487,0.049835 -0.301149,0.051289 -0.115657,0.00186 -0.396665,0.034069 -0.624456,0.072485 -0.227791,0.038398 -0.6615,0.1019514 -0.963791,0.141233 -0.302291,0.039281 -0.76275,0.1148794 -1.023241,0.1679732 -0.491289,0.1001464 -0.795137,0.1515824 -1.053604,0.1783594 -0.083,0.00865 -0.359214,0.038013 -0.613809,0.065358 -0.43062,0.046262 -0.637693,0.063481 -1.534865,0.1275318 -0.321073,0.022927 -1.660596,0.091362 -2.972278,0.1518402 -0.808666,0.037293 -0.975697,0.047293 -1.754131,0.1049718 -0.375189,0.02781 -0.715054,0.050221 -0.755255,0.049797 -0.04022,0 -0.456804,0.024879 -0.925791,0.056206 -0.468983,0.031324 -0.989512,0.065156 -1.15672,0.075155 -0.167212,0.00995 -0.326717,0.032211 -0.354454,0.049355 -0.02771,0.017125 -0.114597,0.017125 -0.19302,-1.475e-4 -0.139082,-0.030553 -0.610448,0.015839 -0.570183,0.056077 0.02509,0.025083 1.488465,0.075635 3.955423,0.1366105 0.669982,0.016572 1.5909,0.040495 2.046485,0.053204 0.45559,0.012709 1.277836,0.035582 1.827225,0.050865 0.549384,0.015286 1.283926,0.032982 1.632316,0.039318 0.348388,0.00626 1.104861,0.028506 1.681045,0.049262 0.576184,0.020776 1.6177,0.045247 2.314482,0.054401 0.696778,0.00921 1.310721,0.023534 1.364319,0.031953 0.09109,0.014366 0.09836,-0.015839 0.111423,-0.4616175 0.0076,-0.2623186 -0.0063,-0.6241025 -0.03116,-0.8039725 -0.04343,-0.3145283 -0.03976,-0.3353018 0.09567,-0.5425013 0.07746,-0.1184892 0.140817,-0.2336077 0.140817,-0.2557992 0,-0.022211 0.04384,-0.040386 0.09745,-0.040386 0.132596,0 0.123507,0.1094838 -0.03297,0.3969589 -0.130274,0.2393539 -0.130351,0.2401088 -0.07281,0.7374905 0.03166,0.2738291 0.05742,0.60751 0.05721,0.7415052 l -3.67e-4,0.2436268 0.854045,-0.043847 0.854049,-0.043829 0.269341,0.1318775 c 0.307373,0.1505145 0.350939,0.2214351 0.271302,0.4416546 -0.03121,0.08628 -0.06778,0.4398312 -0.08128,0.7856669 -0.0135,0.3458358 -0.0366,0.8151711 -0.05125,1.0429569 -0.01468,0.2277905 -0.03383,0.6882675 -0.04262,1.0232545 -0.02962,1.1329739 -0.07477,2.1172771 -0.120653,2.630257 -0.02744,0.307109 -0.02798,0.532007 -0.0014,0.56414 0.02577,0.03102 0.02681,0.114697 0.0023,0.199561 -0.02305,0.08035 -0.04511,0.374653 -0.04901,0.65399 -0.0041,0.279355 -0.02944,0.858742 -0.05677,1.287523 -0.0273,0.428782 -0.05862,1.11445 -0.06956,1.523693 -0.01092,0.409242 -0.03012,0.760621 -0.04262,0.780861 -0.05725,0.09263 -0.20302,2.843038 -0.23424,4.419617 -0.0032,0.160796 -0.01436,0.308161 -0.02482,0.327461 -0.01046,0.01929 -0.02971,0.260513 -0.0428,0.535982 -0.01309,0.275482 -0.03311,0.619701 -0.04447,0.76491 -0.01141,0.14521 -0.02396,0.561818 -0.02798,0.925797 -0.0041,0.363973 -0.01925,0.681414 -0.03388,0.705427 -0.03759,0.0616 -0.01834,0.618836 0.06332,1.832289 0.03877,0.576184 0.07043,1.233969 0.07035,1.461778 -1.45e-4,0.398505 0.02378,0.690287 0.16978,2.070853 0.03682,0.348375 0.07084,0.786918 0.07554,0.974503 0.02436,0.969443 0.03827,1.289973 0.09114,2.095216 0.03166,0.482393 0.08203,1.085372 0.111934,1.339975 0.0299,0.254585 0.06292,0.660237 0.07335,0.901411 0.01041,0.241197 0.03962,0.493367 0.06493,0.560368 0.04723,0.125173 0.124078,1.268608 0.171697,2.554841 0.01481,0.400203 0.0346,0.740071 0.04398,0.755245 0.03962,0.06418 0.177639,1.141651 0.194523,1.518479 0.0101,0.225213 0.03243,0.7274 0.04964,1.11598 0.01722,0.388599 0.04045,0.734139 0.05159,0.767895 0.01114,0.03374 0.03325,0.307844 0.04912,0.609075 0.01586,0.301232 0.05194,0.607843 0.0802,0.68136 0.02827,0.07352 0.03823,0.183148 0.0221,0.243625 -0.03143,0.118049 0.04447,0.821081 0.120978,1.120546 0.03461,0.135432 0.02926,0.215226 -0.0207,0.310642 -0.109338,0.208673 -0.355255,0.262869 -1.195925,0.263572 -0.41138,0 -0.788991,0.02256 -0.839143,0.04941 -0.08463,0.04529 -0.09032,0.111934 -0.07917,0.928024 0.0088,0.645299 -0.0036,0.892371 -0.04747,0.928613 -0.155993,0.129467 -0.889281,0.229888 -1.039269,0.142339 z M 45.46409,46.04365 c 0.0014,-0.0036 -0.0063,-0.381765 -0.01698,-0.840489 l -0.01925,-0.83403 -2.029519,0.01381 c -1.960998,0.01345 -4.180858,0.05698 -4.733811,0.093 -0.147393,0.0096 -0.684599,0.03293 -1.193783,0.05179 -0.509184,0.01888 -0.958681,0.05126 -0.998878,0.07195 -0.04022,0.0207 -0.418436,0.03442 -0.840525,0.03048 -0.422087,-0.0036 -0.76746,0.0041 -0.767496,0.01766 -3.2e-5,0.01363 -0.520792,0.0265 -1.157241,0.02848 -0.942427,0.0027 -2.469467,0.03778 -3.958914,0.09041 -0.120598,0.0041 -0.438534,0.01508 -0.706524,0.02418 l -0.487259,0.0164 0.292354,0.04107 c 0.160795,0.0226 0.478735,0.05316 0.706526,0.06796 0.227794,0.01472 0.622471,0.04711 0.877065,0.07182 0.254594,0.02473 0.715053,0.05788 1.023246,0.07367 0.308188,0.01586 0.746721,0.04956 0.974516,0.07506 0.227795,0.0255 0.863668,0.06848 1.413053,0.09554 0.915461,0.04507 1.62886,0.08919 2.801736,0.173242 0.241197,0.01731 0.548166,0.03854 0.682163,0.04729 0.133996,0.0086 0.364227,0.02858 0.511624,0.04411 0.221645,0.02337 1.025724,0.08143 2.070849,0.149613 0.644452,0.04203 1.803927,0.126939 2.095216,0.153421 0.187594,0.01712 0.505529,0.03565 0.706524,0.04126 0.491461,0.01382 1.985882,0.16118 2.168299,0.213886 0.112388,0.03247 0.574526,0.02319 0.587018,-0.01177 z M 7.2972292,45.447134 c 0.046898,-0.014 0.08527,-0.0023 0.08527,0.02645 0,0.02916 0.096344,0.05201 0.2192651,0.05201 0.120598,0 0.2192674,-0.01807 0.2192674,-0.0399 0,-0.02196 0.1480051,-0.04367 0.3289003,-0.04826 0.1808941,-0.0046 0.5920187,-0.02718 0.9136099,-0.05021 0.3215904,-0.023 0.6481869,-0.02388 0.7257685,-0.0018 0.080404,0.02283 0.2357086,0.01879 0.3611716,-0.0094 0.121063,-0.02713 0.320706,-0.04596 0.443653,-0.04189 0.122947,0.0041 0.651109,-0.01621 1.173695,-0.0452 0.522584,-0.02895 1.476394,-0.07728 2.119575,-0.107405 0.643182,-0.03012 1.322909,-0.06199 1.510504,-0.07079 0.187594,-0.0088 0.724797,-0.02957 1.193785,-0.04609 0.468986,-0.01657 1.050042,-0.04321 1.291236,-0.05927 0.241193,-0.01604 0.581056,-0.03256 0.755251,-0.03669 0.731011,-0.0173 2.96855,-0.137457 3.21591,-0.172707 l 0.267992,-0.03818 -0.292355,-0.01508 c -0.160796,-0.0083 -0.358136,-0.0212 -0.438533,-0.02875 -0.0804,-0.0075 -0.70304,-0.02609 -1.383648,-0.04117 -0.68061,-0.01508 -1.258946,-0.04072 -1.285193,-0.05694 -0.02625,-0.01621 -0.415649,-0.03559 -0.865337,-0.04303 -0.449689,-0.0073 -0.858053,-0.03365 -0.907475,-0.05824 -0.04943,-0.02459 -0.440682,-0.05006 -0.869471,-0.05656 -0.428787,-0.0064 -0.9331,-0.02486 -1.120695,-0.0408 -0.187595,-0.01604 -0.505531,-0.02718 -0.706525,-0.02495 -0.239411,0.0027 -0.331836,-0.01015 -0.267993,-0.03704 0.07393,-0.03116 0.04555,-0.0419 -0.117612,-0.04447 -0.195658,-0.0032 -0.842803,-0.100349 -1.271312,-0.191014 -0.09393,-0.01988 -0.368013,-0.02006 -0.609075,0 -0.272241,0.02215 -0.512138,0.01604 -0.6332,-0.01604 -0.107196,-0.02845 -0.468985,-0.06146 -0.803977,-0.07339 -1.0259737,-0.0365 -1.4290361,-0.0573 -1.6323184,-0.08407 C 8.8101683,43.932076 8.2400737,43.908029 7.6504914,43.892717 7.060908,43.87746 6.5149501,43.843916 6.4372547,43.818336 6.3595571,43.792774 6.2344793,43.77182 6.1593008,43.77182 H 6.022617 l -0.014403,0.828961 c -0.00792,0.455948 -0.00682,0.851432 0.00244,0.878892 0.016776,0.04969 1.1042376,0.02251 1.2865679,-0.03216 z m 7.0439378,-1.026806 c 0.03518,-0.014 0.0772,-0.01232 0.09339,0.0036 0.01618,0.01621 -0.0126,0.02771 -0.06396,0.02559 -0.05676,-0.0023 -0.0683,-0.01382 -0.02943,-0.02943 z m 13.676749,0.08873 c 0.669981,-0.0273 1.722463,-0.06194 2.338842,-0.07688 0.616385,-0.0149 1.361888,-0.03877 1.656678,-0.05298 0.294795,-0.01418 1.314385,-0.04741 2.265757,-0.07381 0.951373,-0.02641 1.981929,-0.05895 2.290116,-0.07232 0.308192,-0.01345 1.272966,-0.04671 2.143941,-0.07408 0.870974,-0.02736 2.26332,-0.07144 3.094094,-0.09792 0.830778,-0.02645 1.979808,-0.0594 2.553406,-0.07317 0.573597,-0.01382 1.060239,-0.03573 1.081427,-0.04882 0.0212,-0.01309 0.038,-0.401507 0.03737,-0.863143 -9.07e-4,-0.461637 0.01223,-1.234006 0.02866,-1.716401 0.0164,-0.48237 0.0389,-1.260782 0.05003,-1.729765 0.01109,-0.468987 0.03193,-1.20353 0.0463,-1.632311 0.01435,-0.428782 0.03795,-1.283931 0.05242,-1.900321 0.03538,-1.506839 0.07943,-3.213863 0.149549,-5.796478 0.01526,-0.561749 0.03491,-1.033163 0.0437,-1.047621 0.0088,-0.01436 0.02963,-0.311286 0.0463,-0.659679 0.03149,-0.658063 0.05908,-1.154488 0.102259,-1.839399 0.07184,-1.139441 0.108828,-3.443167 0.0567,-3.532301 -0.01187,-0.02029 -0.03596,-0.32193 -0.0535,-0.670305 -0.01757,-0.348398 -0.0528,-0.797896 -0.07828,-0.998892 -0.06393,-0.504157 -0.181893,-2.028235 -0.22063,-2.850456 -0.01766,-0.375193 -0.03855,-0.758909 -0.04635,-0.852704 -0.02509,-0.301249 -0.07229,-0.987542 -0.09546,-1.388682 -0.01237,-0.214402 -0.04525,-0.762574 -0.07303,-1.21815 -0.04867,-0.798172 -0.117931,-2.117372 -0.172688,-3.289002 -0.01441,-0.308197 -0.06916,-1.141394 -0.121671,-1.851574 C 45.141338,9.3917125 45.089421,8.6352356 45.078487,8.4208333 45.040806,7.6818346 44.953069,6.4706101 44.903806,6.0089171 44.87663,5.7543148 44.854034,5.4212228 44.853571,5.2687194 c -4.53e-4,-0.1525222 -0.02442,-0.2918584 -0.05316,-0.309648 -0.02875,-0.017863 -0.472796,-0.027478 -0.986699,-0.021527 -0.513909,0.0059 -0.967266,0.0081 -1.007462,0.0046 -0.0653,-0.00552 -0.60489,-0.022392 -2.436299,-0.076427 -0.548302,-0.016206 -1.781805,-0.062799 -2.753011,-0.1040511 -0.267991,-0.011418 -0.525629,-0.020993 -0.572528,-0.021365 -0.127021,0 -0.191485,-0.00222 -0.986701,-0.019502 -0.823073,-0.017863 -1.713274,-0.068692 -1.835299,-0.1049165 -0.04466,-0.013262 -0.0955,0 -0.113004,0.027419 -0.01752,0.028326 -0.05111,0.039594 -0.07468,0.025028 -0.02355,-0.014548 -0.31216,-0.038784 -0.641313,-0.053831 -0.329154,-0.0151 -0.632958,-0.045801 -0.675116,-0.06836 -0.0423,-0.022633 -0.108039,-0.021622 -0.146672,0.00222 -0.0385,0.023791 -0.179854,0.033371 -0.314095,0.021287 -0.134235,-0.012157 -0.858015,-0.03348 -1.608396,-0.047513 -0.750376,-0.013995 -1.473958,-0.036057 -1.607953,-0.048968 -0.863567,-0.083129 -3.957204,-0.113701 -5.164944,-0.051013 -0.837129,0.043444 -1.982552,0.1236276 -2.146792,0.150294 -0.08197,0.013261 -0.410869,0.035028 -0.730889,0.048268 -0.320022,0.013261 -0.735346,0.034897 -0.922939,0.048139 -0.187595,0.013261 -0.812504,0.057403 -1.388688,0.098139 -0.576184,0.040717 -1.271771,0.096279 -1.545751,0.1234618 -0.273981,0.02718 -0.756365,0.060497 -1.071969,0.074051 -0.777012,0.033389 -1.054841,0.048877 -1.767611,0.098507 -0.334991,0.023334 -0.641962,0.037751 -0.682164,0.032062 -0.04019,-0.00571 -0.456803,0.020793 -0.92579,0.058914 -1.000222,0.08127 -2.7277232,0.1999986 -3.5813531,0.246149 -0.187596,0.010128 -0.5802376,0.031473 -0.8725398,0.047403 -0.2923036,0.01602 -0.5538234,0.042778 -0.5811564,0.059687 -0.027333,0.016944 -0.2557478,0.035948 -0.5075877,0.042357 -0.2518399,0.00645 -0.466509,0.020277 -0.4770429,0.030812 -0.010535,0.010499 -0.04204,0.2811587 -0.070006,0.6013955 C 6.4928573,7.4538128 6.4042888,8.3383885 6.3578339,8.639991 6.3310031,8.8141695 6.2973855,9.2856021 6.2831288,9.6875896 6.2688748,10.089577 6.2232545,10.769297 6.181754,11.198097 c -0.041501,0.428782 -0.093165,1.031761 -0.1148096,1.339952 -0.021645,0.308194 -0.063841,0.680786 -0.093766,0.828007 -0.036605,0.180071 -0.03814,0.273092 -0.0047,0.284234 0.061764,0.02061 0.064166,0.317772 0.00506,0.627308 -0.070025,0.366792 -0.1445057,1.150285 -0.1746142,1.836854 -0.015155,0.345671 -0.035436,0.641671 -0.045057,0.657804 -0.00963,0.01604 -0.0318,0.423994 -0.049283,0.906369 -0.017478,0.48239 -0.053943,1.162111 -0.081023,1.510504 -0.027079,0.348393 -0.069305,0.918485 -0.093832,1.266879 -0.024525,0.348381 -0.067689,0.918486 -0.095914,1.266861 -0.1236734,1.526419 -0.2326046,3.409737 -0.2691551,4.65345 -0.031228,1.062704 0.00557,1.763028 0.1484321,2.825985 0.041429,0.308196 0.095743,0.933105 0.1207026,1.388686 0.069441,1.267469 0.099622,1.782178 0.1185666,2.02212 0.00952,0.120607 0.033023,0.701655 0.052229,1.291246 0.019204,0.589573 0.040781,1.181594 0.047946,1.31559 0.00717,0.133996 0.026976,0.769865 0.044024,1.413049 0.017052,0.64318 0.041284,1.300984 0.053852,1.461774 0.028059,0.358856 0.063748,1.153695 0.099558,2.217042 0.014897,0.442189 0.046368,1.285403 0.069947,1.873798 0.023579,0.588413 0.032397,1.08679 0.019589,1.107507 -0.0128,0.0207 -0.00168,0.07806 0.024757,0.127442 0.04194,0.07836 0.120511,0.09109 0.6187082,0.100144 0.3138694,0.0057 0.5837921,0.01843 0.5998308,0.02831 0.016043,0.0097 0.3361356,0.03166 0.711325,0.04849 0.375189,0.01675 0.7808326,0.04063 0.9014294,0.05295 0.1205975,0.01232 0.5152756,0.03483 0.8770654,0.05008 0.3617918,0.01526 1.0086278,0.0483 1.4374148,0.0735 1.095115,0.06435 2.502842,0.134273 3.362087,0.166996 0.40199,0.01526 1.081715,0.05148 1.510504,0.08035 0.428787,0.02889 0.90021,0.05938 1.047606,0.06779 0.147395,0.0085 0.421478,0.02777 0.609074,0.04299 0.187595,0.01531 0.582274,0.03859 0.877065,0.05186 0.711844,0.03207 1.289055,0.0677 1.997763,0.123353 0.321592,0.02527 0.957464,0.05674 1.413049,0.06998 0.455589,0.01327 0.986143,0.04648 1.179013,0.07393 0.192868,0.02744 0.706732,0.06151 1.141918,0.07573 0.435188,0.01418 0.803281,0.03786 0.817984,0.05257 0.03,0.02998 1.133699,0.0036 2.951823,-0.07059 z m 16.352435,-0.987197 c -0.09605,-0.103094 -0.121871,-0.162779 -0.10812,-0.249849 0.0088,-0.05558 -0.113854,-0.04361 -0.174513,0.01712 -0.039,0.03899 -0.08151,0.02568 -0.155927,-0.04873 -0.162702,-0.162707 -0.251981,-0.135876 -0.140712,0.04231 0.07428,0.118927 0.01214,0.188137 -0.09794,0.109111 -0.04562,-0.03275 -0.137751,-0.08572 -0.204746,-0.117712 -0.067,-0.03202 -0.177372,-0.09575 -0.245273,-0.141641 -0.06791,-0.04592 -0.204946,-0.09876 -0.304537,-0.117437 -0.09959,-0.0187 -0.181077,-0.0509 -0.181077,-0.07158 0,-0.0207 -0.03836,-0.04895 -0.08528,-0.0628 -0.0469,-0.01382 -0.238665,-0.08219 -0.426142,-0.151863 -0.187476,-0.06968 -0.37699,-0.126681 -0.421141,-0.126681 -0.08315,0 -0.154757,-0.114607 -0.103578,-0.165782 0.04276,-0.04275 0.196594,-0.03551 0.293722,0.01381 0.155347,0.07894 0.621698,0.249353 0.682443,0.249353 0.09996,0 0.06737,-0.07702 -0.06185,-0.14617 -0.067,-0.03587 -0.121817,-0.09208 -0.121817,-0.124932 0,-0.03288 -0.05638,-0.111382 -0.125305,-0.174495 -0.06892,-0.06311 -0.167588,-0.209737 -0.219267,-0.325871 -0.228749,-0.513993 -0.0078,-0.781967 0.358291,-0.434493 0.205429,0.194991 0.668049,0.749041 0.66953,0.801837 0.0023,0.07205 0.186932,0.281085 0.219678,0.248326 0.01789,-0.01785 -0.02229,-0.138158 -0.0893,-0.267258 -0.191145,-0.368285 -0.301716,-0.932367 -0.218555,-1.115002 0.0342,-0.07506 0.08002,-0.09563 0.180352,-0.08089 0.173765,0.0255 0.271895,0.194972 0.344937,0.595723 0.03176,0.174196 0.06395,0.338637 0.07156,0.36545 0.0076,0.02681 0.01114,0.06064 0.0078,0.07523 -0.0032,0.01454 0.03061,0.08233 0.0753,0.15055 0.0447,0.06823 0.08971,0.187861 0.100019,0.265836 0.01032,0.078 0.01848,-0.04457 0.01811,-0.272354 -9.07e-4,-0.520511 0.07901,-0.779607 0.240006,-0.779607 0.140219,0 0.173436,0.04849 0.193333,0.282246 0.0085,0.09935 0.0503,0.261817 0.09297,0.361025 0.05441,0.126481 0.06442,0.215045 0.03352,0.296335 -0.026,0.06832 -0.02668,0.333497 -0.0018,0.645869 0.02333,0.291452 0.03456,0.537803 0.02495,0.547419 -0.0096,0.0096 -0.06354,-0.03197 -0.119833,-0.0924 z m -0.687062,-0.434104 c 0,-0.02763 -0.03474,-0.06359 -0.07718,-0.07987 -0.06215,-0.02388 -0.0645,-0.03765 -0.01218,-0.07081 0.05034,-0.03193 0.04651,-0.04134 -0.01698,-0.04194 -0.04511,0 -0.09591,-0.04457 -0.112917,-0.09819 -0.01703,-0.05359 -0.05207,-0.09746 -0.0779,-0.09746 -0.02582,0 -0.06059,-0.03551 -0.07726,-0.0789 -0.01667,-0.04339 -0.09819,-0.14775 -0.18119,-0.231858 -0.083,-0.08412 -0.212111,-0.226776 -0.286909,-0.317015 -0.139961,-0.168857 -0.223367,-0.182208 -0.141057,-0.02256 0.02554,0.0495 0.07345,0.1558 0.106476,0.236188 0.03302,0.08038 0.08008,0.179057 0.104552,0.219262 0.02446,0.04022 0.05737,0.111455 0.07313,0.158358 0.01577,0.04691 0.05897,0.08527 0.09604,0.08527 0.0371,0 0.06741,0.02002 0.06741,0.04452 0,0.05914 0.391574,0.345299 0.472493,0.345299 0.03491,0 0.06349,-0.0226 0.06349,-0.05025 z m 0.601887,-0.186335 c 0.02622,-0.137511 0.01867,-0.158689 -0.0476,-0.133276 -0.0633,0.02428 -0.07214,0.0085 -0.04502,-0.08013 0.01857,-0.06068 0.03582,-0.13775 0.03836,-0.171248 0.0027,-0.03352 0.02287,-0.06092 0.0452,-0.06092 0.02233,0 0.04063,-0.07674 0.04063,-0.170533 0,-0.0938 -0.02192,-0.170533 -0.04873,-0.170533 -0.02681,0 -0.04873,-0.04826 -0.04873,-0.1072 0,-0.06675 -0.01708,-0.08974 -0.04529,-0.0609 -0.07279,0.07438 -0.07969,0.906198 -0.0086,1.037135 0.07308,0.134622 0.07922,0.130405 0.119788,-0.0824 z m -0.594151,-0.40937 c -0.05395,-0.113701 -0.126238,-0.37882 -0.16066,-0.589129 -0.06106,-0.373054 -0.18455,-0.670032 -0.185443,-0.445947 -1.85e-4,0.05361 0.02223,0.185157 0.04995,0.292354 0.02768,0.107202 0.07152,0.282616 0.09744,0.389813 0.02591,0.107183 0.07808,0.260681 0.115937,0.34107 0.03786,0.0804 0.08375,0.190034 0.10198,0.243624 0.02088,0.06139 0.04162,0.07479 0.05601,0.03619 0.01259,-0.0337 -0.02128,-0.15429 -0.07521,-0.267991 z m -1.030977,-0.304361 c 0,-0.01345 -0.04384,-0.106372 -0.09745,-0.206372 -0.0536,-0.1 -0.09745,-0.217826 -0.09745,-0.26184 0,-0.04403 -0.03288,-0.107329 -0.07308,-0.140681 -0.06044,-0.05016 -0.07408,-0.04488 -0.07886,0.03057 -0.0093,0.146796 0.0115,0.236242 0.05896,0.253666 0.02432,0.0088 0.04425,0.04729 0.04425,0.08527 0,0.03795 0.02047,0.06902 0.04545,0.06902 0.025,0 0.05936,0.04384 0.07638,0.09746 0.02681,0.08454 0.121817,0.141384 0.121817,0.07291 z m -0.170542,1.105223 c -0.08039,-0.04498 -0.19003,-0.0888 -0.243629,-0.09737 -0.0536,-0.0086 -0.185157,-0.05661 -0.292353,-0.106757 -0.107197,-0.05016 -0.227764,-0.09799 -0.267929,-0.106264 -0.07759,-0.01604 -0.312359,-0.250309 -0.393459,-0.392684 -0.07981,-0.140128 0.131446,-0.107106 0.259721,0.04063 0.146768,0.168988 0.688521,0.435616 1.028591,0.506222 0.151699,0.03149 0.263263,0.07757 0.247922,0.102392 -0.01536,0.02483 0.01857,0.04512 0.07531,0.04512 0.05677,0 0.08965,0.02193 0.07308,0.04873 -0.046,0.07444 -0.323501,0.05167 -0.487257,-0.03999 z M 7.7258745,42.753727 c -0.038938,-0.02631 -0.1301612,-0.036 -0.2027223,-0.02147 -0.072561,0.01454 -0.2106358,0 -0.3068323,-0.03134 -0.1512365,-0.04993 -0.1751111,-0.07864 -0.1764518,-0.212319 -0.0015,-0.143072 -0.00663,-0.147864 -0.069847,-0.06442 -0.082195,0.108488 -0.17201,0.06648 -0.1728203,-0.08085 -3.683e-4,-0.05872 -0.057341,-0.205412 -0.1267047,-0.32602 -0.1008444,-0.175325 -0.1281372,-0.292485 -0.1362014,-0.584712 -0.00554,-0.200991 0.019276,-0.464104 0.055159,-0.584713 0.035884,-0.120584 0.073797,-0.310678 0.084246,-0.422408 0.019339,-0.206811 0.099364,-0.406535 0.1623452,-0.40519 0.1650228,0.0036 0.3000439,0.402889 0.2686685,0.794654 -0.015984,0.19965 -0.00683,0.277547 0.029924,0.254842 0.029128,-0.01807 0.052955,-0.08497 0.052955,-0.148801 0,-0.06383 0.02097,-0.129023 0.046598,-0.144861 0.025631,-0.01586 0.034422,-0.06054 0.019534,-0.09934 -0.045842,-0.119447 0.1621369,-0.481156 0.3154841,-0.548668 0.195275,-0.08598 0.2949631,-0.0322 0.4016198,0.216607 0.104364,0.243461 0.08097,0.635358 -0.043412,0.727178 -0.044195,0.03261 -0.053321,0.06527 -0.023411,0.08375 0.026958,0.01675 0.1892453,-0.04525 0.3606438,-0.137624 0.3290603,-0.177327 0.6973105,-0.227863 0.8135087,-0.111676 0.070925,0.07092 0.077093,0.26536 0.00974,0.306979 -0.026795,0.01658 -0.048729,0.06871 -0.048729,0.115911 0,0.11985 -0.2258507,0.303296 -0.457713,0.371746 -0.3096277,0.09142 -0.254726,0.145616 0.1498387,0.147881 0.2473351,0.0018 0.3808868,0.02201 0.3938427,0.0609 0.010794,0.03234 0.050743,0.05881 0.088813,0.05881 0.038061,0 0.151025,0.04389 0.2510279,0.09746 0.1000039,0.05359 0.2095567,0.09745 0.2434537,0.09745 0.098475,0 0.076994,0.281457 -0.023639,0.309777 -0.1495445,0.04212 -0.3999093,0.08782 -0.4133587,0.07547 -0.00717,-0.0066 -0.06278,0.01472 -0.1236217,0.04729 -0.099285,0.05313 -0.2847181,0.08284 -1.1075174,0.177512 -0.133997,0.01545 -0.2754882,0.0064 -0.3144232,-0.01984 z m 0.9817302,-0.323755 c 0.2196453,-0.02264 0.3521411,-0.06226 0.4055478,-0.121269 0.073946,-0.08171 0.071869,-0.09002 -0.030759,-0.122576 -0.1937942,-0.06151 -0.5594935,-0.02763 -0.7960851,0.0738 -0.126351,0.05417 -0.2816958,0.09849 -0.3452112,0.09849 -0.063515,0 -0.1762642,0.0274 -0.2505546,0.0609 -0.1333399,0.06013 -0.1319621,0.06122 0.1073402,0.08575 0.1333268,0.01363 0.3191562,0.01 0.4129527,-0.0083 0.093799,-0.01826 0.3173442,-0.04828 0.4967669,-0.06678 z M 7.285047,41.905815 c 0,-0.03451 0.045992,-0.149649 0.1022072,-0.255817 0.056213,-0.10615 0.1110527,-0.25718 0.1218649,-0.335616 0.010811,-0.07844 0.062077,-0.182137 0.11392,-0.230422 0.1010546,-0.09414 0.1807649,-0.473494 0.1282496,-0.610347 -0.026531,-0.06916 -0.044337,-0.05919 -0.1057486,0.05919 -0.040613,0.07828 -0.091204,0.153793 -0.1124228,0.167806 -0.070482,0.04655 -0.1506177,0.236704 -0.1506177,0.357402 0,0.06549 -0.030192,0.193019 -0.06709,0.283385 -0.095055,0.2328 -0.146666,0.627196 -0.082073,0.627196 0.028438,0 0.05171,-0.02826 0.05171,-0.06278 z m 0.9868884,-0.01141 c 0.00277,-0.02613 -0.031672,-0.05458 -0.076572,-0.06322 -0.057849,-0.01106 -0.072836,0.0072 -0.051437,0.06296 0.03155,0.08221 0.1192587,0.0824 0.12801,0 z M 6.9180641,41.785987 c -0.012908,-0.0737 -0.032746,-0.331341 -0.044092,-0.572538 -0.024756,-0.526408 -0.024431,-0.525027 -0.079973,-0.341065 -0.039381,0.130422 -0.017641,0.83036 0.030644,0.986694 0.037108,0.120128 0.1163971,0.0581 0.093423,-0.07309 z m 1.3694992,-0.261692 c 0.014566,-0.0236 0.078436,-0.04285 0.1419385,-0.04285 0.0635,0 0.1483469,-0.03288 0.1885457,-0.0731 0.0402,-0.04022 0.1075466,-0.07309 0.1496582,-0.07309 0.044085,0 0.076567,-0.04134 0.076567,-0.09746 0,-0.05359 -0.028011,-0.09744 -0.062245,-0.09744 -0.05594,0 -0.2656154,0.122949 -0.3275614,0.192082 -0.043095,0.04809 -0.2167112,0.150976 -0.304536,0.180457 -0.0469,0.01586 -0.085272,0.04594 -0.085272,0.06712 0,0.04862 0.1873653,0.0018 0.2229026,-0.05573 z M 7.4561141,9.0305785 C 7.3779065,8.9441528 7.3715194,8.8665997 7.3969137,8.3118524 7.4285499,7.6207905 7.4806164,7.3831852 7.6300558,7.2479395 7.7440642,7.1447694 7.7462962,7.1145869 7.5956928,7.7124474 c -0.067825,0.2692415 -0.091806,1.0013378 -0.037443,1.1430105 0.01626,0.042393 0.047601,0.077074 0.069633,0.077074 0.059335,0 0.1442679,-0.4608619 0.1664373,-0.9031452 0.010698,-0.213442 0.023303,-0.4100129 0.028004,-0.4368075 C 7.844377,7.4668663 7.7713838,7.0617675 7.7210764,7.0306838 7.6801643,7.0054111 7.6880633,6.9599109 7.7497008,6.8658399 7.8594646,6.6983101 7.9681009,6.6424156 8.1839303,6.6424156 c 0.095922,0 0.2139838,-0.02473 0.2623553,-0.054917 0.1429458,-0.089279 0.7461075,0.1206075 0.8246006,0.2869234 0.090083,0.1908822 0.074663,0.2552463 -0.061174,0.2552463 -0.1528754,0 -0.1560085,0.089062 -0.00762,0.2177176 0.1638076,0.1420577 0.2269228,0.2838979 0.2269228,0.5099763 0,0.2044743 -0.035376,0.2406987 -0.1364316,0.1396302 -0.032165,-0.032157 -0.058471,-0.041624 -0.058471,-0.021015 0,0.020563 -0.063687,-0.00792 -0.1415186,-0.06335 -0.077837,-0.055432 -0.1554928,-0.1007738 -0.172576,-0.1007738 -0.01709,0 -0.078137,-0.043842 -0.1356634,-0.097459 C 8.6926715,7.6289832 8.4544985,7.5758155 8.4544985,7.64075 c 0,0.024548 0.064659,0.1082835 0.3167194,0.4101986 0.080395,0.096299 0.1681045,0.2111956 0.1949036,0.2553233 0.026795,0.04416 0.099553,0.1483034 0.1616759,0.23145 0.1074656,0.1438512 0.1083328,0.1511976 0.017843,0.1511976 -0.052303,0 -0.1749621,-0.093188 -0.2725695,-0.2070877 C 8.7754295,8.3679463 8.6303551,8.2001765 8.5506483,8.1090176 8.4709434,8.0178725 8.4057282,7.9137151 8.4057282,7.8775812 c 0,-0.036143 -0.021926,-0.065727 -0.048724,-0.065727 -0.0268,0 -0.048726,-0.032112 -0.048726,-0.07138 0,-0.079723 -0.1857538,-0.1976443 -0.2345199,-0.1488785 -0.040749,0.040762 0.2404278,0.5652277 0.3197898,0.5964971 0.033498,0.013271 0.060907,0.049468 0.060907,0.080592 0,0.065044 0.4808925,0.5664235 0.5432929,0.5664235 0.022777,0 0.041418,0.032882 0.041418,0.073073 0,0.040219 -0.019965,0.073092 -0.044357,0.073092 -0.062798,0 -0.4429067,-0.2537744 -0.4429067,-0.2957056 0,-0.019113 -0.087706,-0.1409027 -0.1949028,-0.2706229 -0.1071923,-0.129724 -0.194899,-0.2636654 -0.194899,-0.2976613 0,-0.034014 -0.018397,-0.061805 -0.040903,-0.061805 -0.022501,0 -0.065883,-0.054803 -0.096408,-0.1218031 C 7.9612675,7.7942494 7.848754,7.766404 7.89136,7.9006574 7.919794,7.9902354 7.84248,8.8841504 7.792626,9.0421778 7.7563011,9.1573551 7.5648438,9.1507424 7.4561023,9.0305831 Z M 9.0359292,7.491804 C 8.8752629,7.3281013 8.7496464,7.2546789 8.4958548,7.1761338 8.3139612,7.1198362 8.1168409,7.0808671 8.05781,7.0895405 7.9237666,7.1092425 7.876299,7.2271279 8.002414,7.2271279 c 0.1249587,0 0.7069477,0.1992249 0.7721828,0.2643455 0.028864,0.028805 0.1330936,0.095724 0.2316207,0.1487246 0.098526,0.052987 0.18087,0.1187686 0.1829862,0.1461702 0.00209,0.027401 0.015602,0.020336 0.029961,-0.015671 0.014495,-0.036369 -0.066988,-0.160405 -0.1832409,-0.2788566 z M 42.053306,8.8228976 c -0.05832,-0.1871773 -0.06797,-0.1999406 -0.07157,-0.094565 -0.0023,0.062009 -0.02573,0.098967 -0.05265,0.082341 -0.09055,-0.055967 0.0041,-0.5715641 0.155021,-0.8453937 0.258149,-0.4680633 0.04807,-0.3569219 -0.254336,0.1345483 -0.08407,0.1366317 -0.172838,0.2360789 -0.197268,0.220974 -0.05818,-0.035961 -0.05748,-0.1678784 9.07e-4,-0.1678784 0.02492,0 0.09458,-0.098673 0.154816,-0.2192621 0.06022,-0.1206075 0.127546,-0.2192802 0.149595,-0.2192802 0.02206,0 0.04008,-0.023189 0.04008,-0.051601 0,-0.029576 -0.02595,-0.034965 -0.06091,-0.012546 -0.190543,0.1220977 -0.387639,0.1505137 -0.638822,0.092132 -0.328171,-0.076299 -0.37224,-0.1056702 -0.37224,-0.2481944 0,-0.143054 0.172018,-0.312871 0.354276,-0.3497386 0.07425,-0.015082 0.146221,-0.04545 0.159921,-0.067624 0.01368,-0.022147 0.05709,-0.027945 0.09644,-0.012908 0.03936,0.015082 0.07152,0.00317 0.07152,-0.026496 0,-0.029666 0.04461,-0.053937 0.09917,-0.053937 0.11189,0 0.339368,-0.1346208 0.339368,-0.2008282 0,-0.023914 -0.05805,-0.092631 -0.129019,-0.1527602 C 41.826658,6.5697696 41.700574,6.4583697 41.617436,6.3823656 41.534302,6.3063434 41.395022,6.18863 41.307922,6.1207671 41.040469,5.9123886 41.133104,5.5290395 41.433492,5.60112 c 0.07163,0.017125 0.25084,0.041233 0.398233,0.053426 0.154318,0.012709 0.309329,0.057568 0.365446,0.1056164 0.0536,0.045893 0.203686,0.1101464 0.333529,0.1427982 0.284301,0.071491 0.636643,0.3152281 0.495197,0.3425576 -0.04928,0.00957 -0.212032,-0.037222 -0.361712,-0.103831 C 42.51453,6.0750562 42.282432,5.9854622 42.148436,5.9425714 41.877777,5.8559784 41.4062,5.802296 41.373978,5.8544314 c -0.01141,0.01847 0.07046,0.074273 0.181947,0.1240138 0.111486,0.049723 0.259662,0.1200545 0.329276,0.1562793 0.22303,0.1160579 0.792265,0.3070122 1.018485,0.341692 0.268235,0.041079 0.584712,0.1708451 0.584712,0.2397204 0,0.0279 0.04009,0.085085 0.08904,0.1269981 0.07186,0.061547 0.09095,0.157937 0.09892,0.499609 0.01654,0.7080103 -0.117967,1.011524 -0.453302,1.0230146 -0.170248,0.00589 -0.191802,-0.00792 -0.242371,-0.1554867 -0.05257,-0.153367 -0.05951,-0.1572168 -0.131304,-0.073092 -0.04172,0.048839 -0.126759,0.1764977 -0.189044,0.2836987 -0.06228,0.1072011 -0.168671,0.2552101 -0.236418,0.3288908 -0.12737,0.1385657 -0.337311,0.1799623 -0.370605,0.073097 z m 0.344299,-0.2664062 c 0.140486,-0.1515826 0.543011,-0.87198 0.631965,-1.1310217 0.09233,-0.2688566 0.137297,-0.6368658 0.07783,-0.6368658 -0.02804,0 -0.06489,0.043842 -0.08191,0.097441 -0.01703,0.053607 -0.05687,0.098451 -0.08856,0.099665 -0.0317,0.00181 -0.156292,0.099705 -0.276891,0.2188771 -0.120594,0.1191536 -0.235712,0.2168299 -0.255808,0.2170517 -0.02011,1.858e-4 -0.03655,0.063426 -0.03655,0.1404408 0,0.077037 -0.02957,0.2250458 -0.0657,0.3289135 -0.0898,0.2580997 -0.142171,0.7979142 -0.0774,0.7979142 0.02768,0 0.105521,-0.059577 0.173015,-0.132415 z m 1.063364,-0.5350046 c 0.01341,-0.03492 0.01073,-0.240513 -0.0059,-0.4568672 L 43.424731,7.1712515 43.311397,7.3088206 C 43.15852,7.4943448 43.083427,7.784398 43.121861,8.0407313 l 0.0317,0.2114537 0.141526,-0.08359 c 0.07785,-0.045985 0.152494,-0.1121742 0.165895,-0.1471078 z m -1.70235,-0.4851882 c 0.0536,-0.013271 0.185157,-0.087939 0.292354,-0.1660396 0.107197,-0.078106 0.288092,-0.185343 0.401992,-0.2382891 0.113895,-0.052964 0.207083,-0.1062228 0.207083,-0.1183973 0,-0.012138 0.01332,-0.056792 0.02957,-0.099171 0.04566,-0.1190041 -0.417295,-0.1045108 -0.650286,0.020381 -0.100003,0.053612 -0.20542,0.097459 -0.234262,0.097459 -0.02885,0 -0.09619,0.040763 -0.149648,0.090552 -0.05346,0.049816 -0.176439,0.1167032 -0.273281,0.1486748 -0.229974,0.075891 -0.328249,0.1866654 -0.201544,0.2271609 0.04992,0.016034 0.134612,0.048159 0.18821,0.071565 0.0536,0.023416 0.141305,0.030753 0.194904,0.016396 0.0536,-0.014357 0.141306,-0.037003 0.194904,-0.050237 z m 1.583015,-0.5309373 c 0.01821,-0.05223 0.01698,-0.1497618 -0.0027,-0.2167574 -0.03111,-0.1060598 -0.03641,-0.098175 -0.04063,0.060903 -0.0027,0.1004934 -0.02677,0.1827206 -0.05358,0.1827206 -0.02681,0 -0.04873,0.023733 -0.04873,0.052784 0,0.084324 0.10928,0.024548 0.145598,-0.07965 z M 42.354496,6.6129895 c -0.01617,-0.016214 -0.05823,-0.017845 -0.09339,-0.00362 -0.03886,0.015671 -0.0273,0.027085 0.02943,0.02944 0.05137,0.00227 0.08014,-0.00938 0.06396,-0.02559 z m -0.839505,1.9297468 c 0.01654,-0.026813 0.03976,-0.048729 0.0516,-0.048729 0.01182,0 0.02147,0.021921 0.02147,0.048729 0,0.026813 -0.02324,0.048712 -0.0516,0.048712 -0.0284,0 -0.03804,-0.021921 -0.02147,-0.048712 z m 5.956737,35.3694007 c 0.09784,-0.03637 0.109634,-0.07386 0.109634,-0.34891 0,-0.169504 -0.01996,-0.329022 -0.04444,-0.354476 -0.02446,-0.02546 -0.05729,-0.221708 -0.07301,-0.436091 -0.01572,-0.214398 -0.04975,-0.55425 -0.07561,-0.755246 -0.04748,-0.369073 -0.137642,-1.499158 -0.176869,-2.217037 -0.01173,-0.21438 -0.04529,-0.663882 -0.07461,-0.99887 -0.02935,-0.334986 -0.06067,-0.718708 -0.06965,-0.852703 -0.009,-0.133997 -0.02813,-0.353276 -0.04253,-0.487271 -0.02509,-0.233421 -0.09968,-1.222937 -0.154285,-2.046487 -0.08079,-1.218372 -0.122905,-1.74251 -0.260379,-3.240273 -0.05931,-0.646111 -0.09555,-1.188906 -0.126894,-1.900299 -0.04977,-1.129771 -0.06894,-1.491335 -0.0917,-1.72977 -0.01277,-0.133996 -0.03538,-0.430014 -0.05014,-0.657804 -0.03402,-0.523495 -0.08181,-0.935718 -0.10577,-0.911759 -0.01594,0.01604 -0.07458,0.75047 -0.140889,1.764463 -0.01051,0.16079 -0.03252,0.873415 -0.04887,1.583595 -0.01635,0.710181 -0.03751,1.411836 -0.04702,1.55922 -0.0095,0.147402 -0.0317,0.914835 -0.04936,1.705421 -0.01766,0.790563 -0.03972,1.722455 -0.04907,2.070853 -0.0093,0.348375 -0.02971,1.367966 -0.04529,2.265748 -0.01558,0.897764 -0.04181,2.202399 -0.05834,2.89919 -0.01654,0.696774 -0.03288,1.683468 -0.03627,2.192657 l -0.0062,0.925796 0.389808,0.0245 c 0.474798,0.0299 1.178469,0.0018 1.327778,-0.05445 z m -0.07758,-0.920216 c 0,-0.06699 0.01106,-0.0944 0.02459,-0.0609 0.0135,0.03352 0.0135,0.0883 0,0.121803 -0.0135,0.03352 -0.02459,0.0061 -0.02459,-0.0609 z M 46.265762,26.7877 c 0,-0.06858 -0.01988,-0.112414 -0.04416,-0.09741 -0.02428,0.01509 -0.0327,0.07111 -0.01867,0.12468 0.03505,0.134087 0.06283,0.122025 0.06283,-0.02727 z M 5.1118012,21.991065 c 0.02534,-0.233886 0.1009775,-1.092537 0.1480837,-1.68104 0.00858,-0.107201 0.032153,-0.39493 0.052387,-0.639424 l 0.036786,-0.444527 -0.1554468,-0.13851 -0.1554463,-0.138507 0.027098,-0.440218 c 0.031659,-0.514248 0.1097432,-1.483524 0.1532256,-1.901974 0.016704,-0.160809 0.03698,-0.511639 0.045052,-0.77963 0.00806,-0.267987 0.039159,-0.629773 0.069084,-0.80397 0.029924,-0.174196 0.074928,-0.502041 0.1000033,-0.72854 0.025073,-0.226501 0.067968,-0.511544 0.095318,-0.633442 0.063414,-0.282612 0.2034905,-1.350044 0.2056247,-1.566951 9.071e-4,-0.09083 0.020916,-0.24228 0.044486,-0.336536 0.023574,-0.09425 0.054848,-0.54375 0.069507,-0.99887 0.043498,-1.3508179 0.063668,-1.6738162 0.1148717,-1.8395614 0.026736,-0.086557 0.073556,-0.4643449 0.104038,-0.8395375 0.030481,-0.3751879 0.074764,-0.7369742 0.098405,-0.8039698 0.023642,-0.067 0.06755,-0.4362957 0.097576,-0.820678 C 6.2924763,6.0708184 6.3287374,5.7258667 6.3430283,5.6886291 6.3644196,5.632884 6.2579015,5.621466 5.7405126,5.6240811 5.3948372,5.625938 5.0320663,5.6122961 4.9343561,5.5939531 4.7847991,5.5658856 4.7375543,5.5797722 4.6356488,5.6816691 4.5146608,5.8026625 4.5146073,5.8031417 4.5330932,6.6245525 c 0.010168,0.4520255 0.031202,1.0740084 0.04673,1.3821827 0.015526,0.3081925 0.038303,1.1241013 0.05061,1.8131025 0.012302,0.6890193 0.032646,1.3577793 0.045192,1.4861403 0.0606,0.620014 0.076902,0.872076 0.1001909,1.548997 0.013832,0.401983 0.037909,0.834688 0.053506,0.961559 0.015598,0.126867 0.035088,0.37902 0.043308,0.560346 0.034164,0.753568 0.076347,1.513433 0.095804,1.725751 0.013959,0.152303 -0.011454,0.311472 -0.07744,0.485116 -0.075633,0.199062 -0.091209,0.320553 -0.067766,0.5286 0.01674,0.148562 0.040142,0.577104 0.051998,0.952297 0.011862,0.375187 0.032271,0.934319 0.045362,1.242493 0.013094,0.308193 0.035591,0.856368 0.049998,1.218151 0.014403,0.361803 0.036441,0.844174 0.048968,1.071983 0.012523,0.227786 0.023071,0.478118 0.023438,0.556274 9.07e-4,0.217844 0.036459,0.132084 0.068807,-0.16648 z M 46.238606,21.01203 c -0.01323,-0.02142 -0.0027,-0.330625 0.02297,-0.687162 0.02586,-0.356552 0.06011,-1.013381 0.07616,-1.459642 0.01604,-0.446237 0.05241,-1.169823 0.08081,-1.607944 0.0284,-0.438134 0.06002,-0.97202 0.07026,-1.186418 0.01024,-0.214385 0.04158,-0.685817 0.06966,-1.047599 0.02808,-0.361786 0.06007,-0.931892 0.07112,-1.266879 0.01106,-0.334991 0.03252,-0.795428 0.04773,-1.023236 0.01517,-0.227787 0.03724,-0.732092 0.04898,-1.120691 0.01173,-0.388581 0.03347,-0.750386 0.04833,-0.803975 0.01486,-0.05361 0.03587,-0.667546 0.04677,-1.3643191 0.02848,-1.8237232 0.121268,-4.213341 0.170632,-4.3944266 0.05492,-0.2014352 0.0298,-0.2093721 -0.563104,-0.1782122 -0.263933,0.013814 -0.655295,0.031233 -0.869688,0.038602 -0.214393,0.00737 -0.406253,0.016391 -0.426354,0.020127 -0.05284,0.00976 -0.04488,0.4954295 0.01264,0.7704738 0.02703,0.1293361 0.07023,0.6956292 0.09597,1.2584067 0.06199,1.3551844 0.137945,2.4877184 0.20096,2.9966489 0.02822,0.2277865 0.06095,0.7211355 0.07276,1.0963275 0.01182,0.375188 0.04321,0.956254 0.06972,1.291242 0.02654,0.334992 0.07036,1.025669 0.09739,1.534853 0.02704,0.509189 0.05882,1.057359 0.07064,1.218149 0.01182,0.16079 0.03447,0.588359 0.05028,0.950161 0.0346,0.79123 0.115282,2.111572 0.141396,2.314479 0.01038,0.08038 0.03497,0.540842 0.05469,1.023232 0.01975,0.482393 0.04107,0.931892 0.0474,0.998892 0.07276,0.768134 0.08783,0.842975 0.152063,0.755149 0.03515,-0.04805 0.05306,-0.104859 0.03986,-0.126241 z M 7.6992172,5.0576204 C 7.8064138,5.0521004 7.9270113,5.0348974 7.96721,5.0193534 8.007407,5.0038824 8.3034177,4.9804924 8.6250088,4.9675304 9.4346612,4.9348794 10.831257,4.8483597 11.036942,4.818084 c 0.356239,-0.052413 0.733551,-0.076832 1.559227,-0.1008834 0.468988,-0.013628 0.92289,-0.047883 1.008677,-0.07604 0.109528,-0.035966 0.184823,-0.035762 0.252855,0 0.05328,0.028506 0.108706,0.032705 0.123159,0.00939 0.02175,-0.035191 0.295613,-0.06512 1.197782,-0.1308465 0.04019,-0.00295 0.3691,-0.021288 0.730888,-0.040789 0.36179,-0.019502 0.877066,-0.055745 1.145059,-0.080533 0.267993,-0.024788 0.73855,-0.057956 1.045684,-0.073701 0.307133,-0.015839 0.57183,-0.036904 0.588215,-0.047016 0.01639,-0.010128 0.258444,-0.022411 0.537908,-0.027312 0.50648,-0.00884 0.7811,-0.056096 0.629932,-0.108342 -0.180181,-0.062265 -0.310925,-0.073167 -0.412829,-0.034417 -0.06331,0.024051 -0.198268,0.021989 -0.317849,-0.00478 -0.114307,-0.02569 -0.528387,-0.055082 -0.920178,-0.06534 -0.391792,-0.010313 -0.953543,-0.031804 -1.248335,-0.047919 -1.37553,-0.075156 -1.407901,-0.078139 -1.63621,-0.1506069 -0.05146,-0.016391 -0.09356,-0.00884 -0.09356,0.016391 0,0.027401 -0.252578,0.040315 -0.621254,0.031804 -0.341691,-0.00792 -0.621256,-0.018914 -0.621256,-0.024476 0,-0.00552 -0.228126,-0.01731 -0.506947,-0.026206 -0.278822,-0.00884 -0.684463,-0.029266 -0.901429,-0.045363 -0.216965,-0.016024 -0.668564,-0.037293 -1.003556,-0.047071 -0.334991,-0.00976 -0.959901,-0.033498 -1.388688,-0.05267 C 9.7554505,3.6721667 9.2072829,3.6491268 8.9660915,3.6401418 8.7248974,3.6311197 8.3703988,3.6176543 8.1783173,3.6101405 7.9862358,3.6025904 7.8126495,3.5800487 7.7925722,3.5599382 7.7724944,3.5398468 7.5508721,3.5234012 7.3000833,3.5234012 c -0.556346,0 -0.5269724,-0.046961 -0.5769243,0.9225171 L 6.6871385,5.1450848 7.0957269,5.106079 C 7.3204493,5.084625 7.5920225,5.0625633 7.6992186,5.0570559 Z M 6.7399252,45.833469 c 0.035173,-0.014 0.077201,-0.01232 0.093392,0.0036 0.016187,0.01621 -0.012596,0.02771 -0.063952,0.02559 -0.056765,-0.0023 -0.068309,-0.01381 -0.02944,-0.02943 z M 5.3509196,45.265867 c 0.018602,-0.04907 0.03382,-0.109393 0.03382,-0.133995 0,-0.02459 0.021926,-0.04475 0.048726,-0.04475 0.07512,0 0.057787,0.09543 -0.03382,0.186203 -0.077314,0.07661 -0.080402,0.07614 -0.048725,-0.0075 z M 3.4395473,42.914775 c 0.00236,-0.05676 0.013887,-0.0683 0.02944,-0.02943 0.014068,0.03519 0.012337,0.0772 -0.00386,0.09341 -0.016187,0.01621 -0.027705,-0.01255 -0.025594,-0.06397 z"
     id="path29377" />
</svg>
